<?xml version="1.0" encoding="UTF-8"?><svg id="a" xmlns="http://www.w3.org/2000/svg" viewBox="0 0 67.45 24"><path d="m38.02,4h3.2v9.6h3.2v-3.2h3.2v9.6h-3.2v-3.2h-6.4V4Z"/><path d="m49.75,9.89v5.89h3.2V4h-3.2v5.89Z"/><path d="m49.75,18.4v1.6h3.2v-3.2h-3.2v1.6Z"/><path d="m12.42,4h-3.2v11.79h3.2V4Z"/><path d="m12.42,16.8h-3.2v3.2h3.2v-3.2Z"/><path d="m7.13,4h-3.2v11.79h3.2V4Z"/><path d="m7.13,16.8h-3.2v3.2h3.2v-3.2Z"/><path d="m63.44,4h-3.2v11.79h3.2V4Z"/><path d="m63.44,16.8h-3.2v3.2h3.2v-3.2Z"/><path d="m58.15,4h-3.2v11.79h3.2V4Z"/><path d="m58.15,16.8h-3.2v3.2h3.2v-3.2Z"/><path d="m26.25,10.4v6.4h6.4v3.2h3.2v-9.6h-3.2v3.2h-3.2V4h-3.2v6.4Z"/><path d="m14.55,10.4v6.4h6.4v3.2h3.2v-9.6h-3.2v3.2h-3.2V4h-3.2v6.4Z"/></svg>