<?xml version="1.0" encoding="UTF-8"?><svg id="a" xmlns="http://www.w3.org/2000/svg" viewBox="0 0 63.71 24"><path d="m16.22,10.38v3.51c0,1.1-.22,2.11-.61,2.99l1.78,1.55-2.22,2.56-1.82-1.55c-.9.54-2,.83-3.24.83-3.73,0-6.11-2.65-6.11-6.38v-3.51c0-3.73,2.38-6.38,6.11-6.38s6.11,2.65,6.11,6.38Zm-4,3.24v-2.97c0-2.16-.76-3.15-2.11-3.15s-2.11.99-2.11,3.15v2.97c0,2.16.76,3.15,2.11,3.15s2.11-.99,2.11-3.15Z"/><path d="m21.51,8.76v6.79c0,1.19.56,1.75,1.44,1.75.67,0,1.17-.43,1.46-1.06v-7.48h3.69v11.24h-3.69v-.97c-.52.74-1.42,1.24-2.65,1.24-2.38,0-3.93-1.62-3.93-4.43v-7.08h3.69Z"/><path d="m33.69,20h-3.69V4h3.69v5.6c.52-.72,1.46-1.1,2.56-1.1,2.2,0,3.98,1.53,3.98,4.65v2.47c0,3.12-1.78,4.65-3.98,4.65-1.1,0-2.04-.38-2.56-1.1v.83Zm0-3.6c.27.52.72.9,1.35.9.92,0,1.51-.52,1.51-1.98v-1.89c0-1.46-.58-1.98-1.51-1.98-.63,0-1.08.38-1.35.9v4.04Z"/><path d="m41.98,4h3.69v3.24h-3.69v-3.24Zm0,4.76h3.69v11.24h-3.69v-11.24Z"/><path d="m52.05,15.77c0,.92.31,1.26,1.17,1.26h1.39v2.97h-2.27c-2.81,0-3.98-1.12-3.98-3.93v-4.34h-1.46v-2.97h1.46v-3.19h3.69v3.19h2.47v2.97h-2.47v4.04Z"/><path d="m55.8,16.29h3.91v3.71h-3.91v-3.71Z"/></svg>