<svg xmlns="http://www.w3.org/2000/svg" viewBox="0 0 67.45 24"><path d="M38.02 4h3.2v9.6h3.2v-3.2h3.2V20h-3.2v-3.2h-6.4V4ZM49.75 9.89v5.89h3.2V4h-3.2v5.89ZM49.75 18.4V20h3.2v-3.2h-3.2v1.6ZM12.42 4h-3.2v11.79h3.2V4ZM12.42 16.8h-3.2V20h3.2v-3.2ZM7.13 4h-3.2v11.79h3.2V4ZM7.13 16.8h-3.2V20h3.2v-3.2ZM63.44 4h-3.2v11.79h3.2V4ZM63.44 16.8h-3.2V20h3.2v-3.2ZM58.15 4h-3.2v11.79h3.2V4ZM58.15 16.8h-3.2V20h3.2v-3.2ZM26.25 10.4v6.4h6.4V20h3.2v-9.6h-3.2v3.2h-3.2V4h-3.2v6.4ZM14.55 10.4v6.4h6.4V20h3.2v-9.6h-3.2v3.2h-3.2V4h-3.2v6.4Z"/></svg>