<svg xmlns="http://www.w3.org/2000/svg" viewBox="0 0 63.71 24"><path d="M16.22 10.38v3.51c0 1.1-.22 2.11-.61 2.99l1.78 1.55-2.22 2.56-1.82-1.55c-.9.54-2 .83-3.24.83-3.73 0-6.11-2.65-6.11-6.38v-3.51C4 6.65 6.38 4 10.11 4s6.11 2.65 6.11 6.38Zm-4 3.24v-2.97c0-2.16-.76-3.15-2.11-3.15S8 8.49 8 10.65v2.97c0 2.16.76 3.15 2.11 3.15s2.11-.99 2.11-3.15ZM21.51 8.76v6.79c0 1.19.56 1.75 1.44 1.75.67 0 1.17-.43 1.46-1.06V8.76h3.69V20h-3.69v-.97c-.52.74-1.42 1.24-2.65 1.24-2.38 0-3.93-1.62-3.93-4.43V8.76h3.69ZM33.69 20H30V4h3.69v5.6c.52-.72 1.46-1.1 2.56-1.1 2.2 0 3.98 1.53 3.98 4.65v2.47c0 3.12-1.78 4.65-3.98 4.65-1.1 0-2.04-.38-2.56-1.1V20Zm0-3.6c.27.52.72.9 1.35.9.92 0 1.51-.52 1.51-1.98v-1.89c0-1.46-.58-1.98-1.51-1.98-.63 0-1.08.38-1.35.9v4.04ZM41.98 4h3.69v3.24h-3.69V4Zm0 4.76h3.69V20h-3.69V8.76ZM52.05 15.77c0 .92.31 1.26 1.17 1.26h1.39V20h-2.27c-2.81 0-3.98-1.12-3.98-3.93v-4.34H46.9V8.76h1.46V5.57h3.69v3.19h2.47v2.97h-2.47v4.04ZM55.8 16.29h3.91V20H55.8v-3.71Z"/></svg>