<svg id="Layer_1" data-name="Layer 1" xmlns="http://www.w3.org/2000/svg" viewBox="0 0 422.02083 421.97917"><title>header-items</title><polygon points="291.123 77.299 291.123 342.822 298.167 343.572 298.167 76.875 291.123 77.299"/><polygon points="303.165 85.652 303.165 334.914 310.167 335.566 310.167 85.304 303.165 85.652"/><polygon points="314.204 92.723 314.204 327.545 321.005 328.153 321.005 92.374 314.204 92.723"/><path d="M95.16667,80.00553V330.4694L286.1049,349.979V70.35356Zm126.59669,151.6833a5.6838,5.6838,0,0,1-1.23269,4.07927,5.39535,5.39535,0,0,1-3.98874,1.26057l-60.63461-4.35478a4.20015,4.20015,0,0,1-4.90363-4.90436V211.28664a4.20015,4.20015,0,0,1,4.90363-4.90436h15.25752V160.88266H158.63172a4.2,4.2,0,0,1-4.90363-4.90363V139.49542a4.20015,4.20015,0,0,1,4.90363-4.90436l38.76594-4.35488a5.4055,5.4055,0,0,1,3.98873,1.26067,5.69328,5.69328,0,0,1,1.2327,4.07926v72.82636h13.92284a5.40577,5.40577,0,0,1,3.98874,1.26058,5.69157,5.69157,0,0,1,1.23269,4.07926Z"/></svg>