<svg id="Layer_1" data-name="Layer 1" xmlns="http://www.w3.org/2000/svg" viewBox="0 0 422.02083 421.97917"><title>header-items</title><polygon points="291.123 77.299 291.123 342.822 298.167 343.572 298.167 76.875 291.123 77.299"/><polygon points="303.165 85.652 303.165 334.914 310.167 335.566 310.167 85.304 303.165 85.652"/><polygon points="314.204 92.723 314.204 327.545 321.005 328.153 321.005 92.374 314.204 92.723"/><path d="M95.16667,80.00553V330.4694L286.1049,349.979V70.35356ZM224.6144,231.95511a6.027,6.027,0,0,1-1.14137,4.09443,4.76047,4.76047,0,0,1-3.69516,1.26572l-63.949-5.23634a4.142,4.142,0,0,1-4.83653-4.83654v-23.108a44.62065,44.62065,0,0,1,1.54429-12.82979,22.26776,22.26776,0,0,1,4.36695-8.26285,20.90749,20.90749,0,0,1,6.71709-5.10466,55.52076,55.52076,0,0,1,8.46357-3.22485l18.00332-7.22779a4.69225,4.69225,0,0,0,2.88786-1.78706,6.897,6.897,0,0,0,.73918-3.57319,4.37889,4.37889,0,0,0-.80585-3.05269,3.90189,3.90189,0,0,0-2.82119-.81839l-29.154,2.48722a4.14269,4.14269,0,0,1-4.83654-4.83653V140.1847a4.14269,4.14269,0,0,1,4.83654-4.83653l39.63294-5.23635q11.41737,0,17.53227,6.3279,6.112,6.33051,6.1127,18.38884v13.99552q0,11.16765-5.64238,17.12294-5.64276,5.9566-15.31546,9.23132l-18.27145,4.65724a6.97151,6.97151,0,0,0-2.75452,1.20877q-.73954.6747-.73845,2.82119v2.82192l38.28865,2.48732a4.769,4.769,0,0,1,3.69516,1.2649,6.03914,6.03914,0,0,1,1.14137,4.09525Z"/></svg>