<svg id="Layer_1" data-name="Layer 1" xmlns="http://www.w3.org/2000/svg" viewBox="0 0 422.02 421.98"><title>hirlevel</title><path d="M-31.27,320.14c3.75,19.94,1.06,59.52-80.26,57.38-108.43-2.86-41.37-161.23,20-176.92s127,92.74,226.86,97S352.18,187.51,447.77,199,606.14,346.13,647.52,347.55s69.31-81.95-11-141.41c-82.38-61-130.62,89.18-128.38,130.52,7.49,138,180.27,55.1,207.55,42.8,160.48-72.39,65.27-156.2,214-186.16,93.52-18.84,287.47,48,323.64,61" fill="none" stroke="#fff" stroke-linecap="round" stroke-miterlimit="10" stroke-width="3.57" stroke-dasharray="1.78 10.7"/><polygon points="125.16 209.77 120.61 145.23 358.98 294.53 125.16 209.77" fill="#c1c1c1"/><polygon points="100.85 157.04 358.98 294.53 34.7 215.51 100.85 157.04" fill="#fff"/><polygon points="120.31 144.81 168.96 103.95 358.98 294.53 120.31 144.81" fill="#fff"/><polygon points="49.57 378.08 47.47 348.35 202.63 375.98 49.57 378.08" fill="#c1c1c1"/><polygon points="47.47 348.35 202.63 375.98 25.04 358.58 47.47 348.35" fill="#fff"/><polygon points="47.47 348.35 58.38 347.03 201.37 375.75 47.47 348.35" fill="#fff"/><polygon points="235.84 68.35 210.67 88.43 389.74 95.75 235.84 68.35" fill="#c1c1c1"/><polygon points="254.32 93.63 242.71 62.55 391 95.98 254.32 93.63" fill="#fff"/><polygon points="242.71 62.55 391 95.98 272.72 37.23 242.71 62.55" fill="#c1c1c1"/></svg>