<svg id="Layer_1" data-name="Layer 1" xmlns="http://www.w3.org/2000/svg" viewBox="0 0 1000 1000"><title>jo-logo</title><path d="M0,0H1000V1000H0Z" style="fill:none"/><g id="JO_txt" data-name="JO txt"><g id="headline"><path d="M43.44,615c0-3.79,1.63-7.33,4.89-10.59a20.63,20.63,0,0,1,12.22-4.07h85.54a20.67,20.67,0,0,1,12.22,4.07c3.26,3.26,4.89,6.8,4.89,10.59v61.11a16.58,16.58,0,0,0,4.89,12.22,36.24,36.24,0,0,0,11.41,4.89H313.92q8.13-1.63,11.41-4.89a16.58,16.58,0,0,0,4.89-12.22V327.36A15.66,15.66,0,0,1,335.1,316a16.59,16.59,0,0,1,12.22-4.89h86.36A16.58,16.58,0,0,1,445.9,316a15.63,15.63,0,0,1,4.89,11.4V747.75q-1.64,27.71-19.55,45.62a73.29,73.29,0,0,1-46.44,19.56H109.43q-26.09-1.63-44-17.93a67.19,67.19,0,0,1-22-42.36Z" style="fill:#231f20"/><path d="M959.17,745.31q0,27.71-20.37,48.06-19.56,19.56-48.07,19.56H620.25q-26.88,0-48.07-19.56-19.54-21.17-19.55-48.06V378.69q0-27.69,19.55-47.25,20.36-20.35,48.07-20.37h271.3q28.5,0,48.06,20.37,19.56,17.93,19.56,45.62ZM837.78,447.94a15.65,15.65,0,0,0-4.89-11.41,16.62,16.62,0,0,0-12.22-4.88H691.94a16.69,16.69,0,0,0-16.29,16.29V671.17a16.71,16.71,0,0,0,16.29,16.29H819.85a16.58,16.58,0,0,0,12.22-4.89,15.59,15.59,0,0,0,4.89-11.4h.82ZM815,277.67q-1.63,4.08-7.33,7.33a32.84,32.84,0,0,1-13,2.44H709.87c-4.89,0-8.43-.81-10.59-2.44a17,17,0,0,1-3.26-5.7,2.31,2.31,0,0,1,.81-1.63q9-26.9,23.63-78.21,1.62-4.08,7.33-7.34a32.77,32.77,0,0,1,13-2.44h84.73q7.34,0,11.41,2.44a7.83,7.83,0,0,1,2.44,5.71v1.63Q824.75,243.46,815,277.67Z" style="fill:#231f20"/></g></g></svg>