<svg id="Layer_1" data-name="Layer 1" xmlns="http://www.w3.org/2000/svg" viewBox="0 0 371.5 346.5"><title>jo2</title><path d="M352.12,258.19c.26-.15.51-.31.76-.48-6.24-5.73-15.56-6.12-24-6.16-50.78-.27-101.56.45-152.34,1.17l-59.49.84c-18.39.26-36.2,2.25-54.58,3.31l-3.85.22c-15.1.86-30.21,1.73-45.23,3.44Q.37,262-12.5,264.32c-2.31.42-5.2,1.49-5.2,3.85l11.26.18q76.69,1.06,153.29-4.23c40.87-2.84,82.56-1.27,123.65-1.61l66-.56c5.46,0,10.92-.89,15.62-3.76" fill="none" stroke="#000" stroke-miterlimit="10"/><path d="M83.34,88.86c20.92,5.86,43.83-1.16,65.16,3.22" fill="none" stroke="#000" stroke-miterlimit="10"/><path d="M118.75,186.45c-9.79-.72-19.71,1.2-29.41-.29-9.45-1.45-18.79,1.2-28.25,2-8.23.68-16.42-.65-24.64-1-7.7-.32-13.26-.32-20.65,2.39-2.08.77-4.41,1.94-4.82,4.11,3.37,1.26,7.1.51,10.66.06,14.1-1.79,28.3,1.41,42.5,1.88,17,.57,33.68-3.25,50.59-3.71,2.07-.06,5.88-.11,7.53-1.61,2.7-2.45-1.09-3.63-3.51-3.81" fill="none" stroke="#000" stroke-miterlimit="10"/><path d="M274.75,83.29c-.17,2.3-3.11,3.81-5.26,4.2-14.27,2.62-29.14,1.05-43.61,1.07q-33.65.06-67.28-1c-9.61-.31-19-.25-28.55-.48-10.74-.27-21.46.94-32.19.46A4.42,4.42,0,0,1,95.61,87,1.55,1.55,0,0,1,95,85a2.22,2.22,0,0,1,1.32-.77c1.35-.42,2.71-.84,4.07-1.23a133.19,133.19,0,0,1,48.32-4.73c16,1.38,31.73,4.43,47.84,4.88,9,.26,18.34-.94,27.39-2.25a192.53,192.53,0,0,1,28.71-1.69c4.94,0,9.86-.82,14.81-.24,1.91.22,5.79.47,6.85,2.5a3.38,3.38,0,0,1,.44,1.84" fill="none" stroke="#000" stroke-miterlimit="10"/><path d="M250.75,75.25c8.65,0,17.29.63,25.93,1.17,4,.25,8.52,1.1,12.49.57,1.46-.2,5.87-.49,6.8-1.4,1.19-1.19.3-3.23-.8-4.5a18.22,18.22,0,0,0-8.06-5.33,30.67,30.67,0,0,0-4.65-1.05A134.81,134.81,0,0,0,266.05,63c-4.14-.18-7.57-1.48-11.62-1.93-10.48-1.17-21.19-.32-31.68.29-18,1.05-36,2.15-53.95,2.5-18.49.36-37.12,1.2-55.44,3.83-3.46.5-6.91,1.07-10.37,1.48C77,72.32,51.31,66.57,25.43,66.05a6.89,6.89,0,0,0-3.69.62c-1.09.65-1.76,2.17-1,3.22A3.35,3.35,0,0,0,22.52,71a70,70,0,0,0,12.94,2.52C55.1,76.1,74.9,78.67,94.67,77.39c18.33-1.18,36.48-5.68,54.93-4.72,17.63.92,35.27,3.26,53,3.81,16,.5,32.07-1.31,48.13-1.23" fill="none" stroke="#000" stroke-miterlimit="10"/><path d="M224.53,68.89c-.6,1.66-1.21,3.31-1.81,5a54.91,54.91,0,0,0-3,10.24,27.66,27.66,0,0,0,1.42,14,2.58,2.58,0,0,0,1.15,1.58c1.14.53,2.3-.64,3-1.66a83.44,83.44,0,0,1,10.81-12.19,13.36,13.36,0,0,1-1.18-5c2.31,2.63,6.15,9.89,10.5,6.55.92-.72,1.8-1.62,2.69-2.41a1.07,1.07,0,0,0,.36-.46c.29-.82-1.24-1.37-1.09-2.22a39.52,39.52,0,0,0,4.95,3.36c.68.4,1.56.76,2.19.3a2.2,2.2,0,0,0,.63-1.06,41.78,41.78,0,0,1,3.52-7.36c.58-1,1.42-1.68,2-2.62a28.15,28.15,0,0,0,1.46-4.26c.65-1.79,2-3.27,1.67-5.35A7,7,0,0,0,262,62c-5.45-6.57-14-10.83-22.51-9.92S223.13,59.68,222,68.15" fill="none" stroke="#000" stroke-miterlimit="10"/><path d="M237.8,141.42c3.46-4,7-7.85,10.65-11.7,1-1.1,1.84-2.69,1.27-4.09-.7-1.7-3.12-2.06-4.76-1.23s-2.7,2.46-3.79,3.94a44.53,44.53,0,0,1-5.19,5.95,37.36,37.36,0,0,0-2.8,2.83A26.59,26.59,0,0,0,231,140.4a3.59,3.59,0,0,0-.71,2.28c.28,1.87,4.59,1.08,5.65.46a7.55,7.55,0,0,0,1.85-1.72" fill="none" stroke="#000" stroke-miterlimit="10"/><path d="M141.76,129.44a100.68,100.68,0,0,0,13.57,16.82.89.89,0,0,0,.5.31.86.86,0,0,0,.55-.17l3.08-1.74a4.32,4.32,0,0,0-1-2.45q-5.31-7.61-10.86-15.06a.69.69,0,0,0-.34-.29.72.72,0,0,0-.57.16l-3.23,2c-.13.36-.25.72-.38,1.07" fill="none" stroke="#000" stroke-miterlimit="10"/><path d="M264,115.13c5.44,2.37,8.26,6.07,7.75,12.34a11.42,11.42,0,0,1-3.78,7.75,16.78,16.78,0,0,1-6.94,3.16,7.42,7.42,0,0,1-3.43.27,2.81,2.81,0,0,1-2.27-2.32,1.2,1.2,0,0,1,.09-.57c.3-.62,1.16-.58,1.84-.52a9.29,9.29,0,0,0,8.21-3.45c5.82-7.8-7.2-17.9-11.91-8.31-.6,1.22-.18,2.2-.5,3.29-.38,1.29-2.24,2.83-3.17,3.77a4.06,4.06,0,0,1-2.08,1.35,4,4,0,0,1-2.22-.44,26.73,26.73,0,0,1-3.67-1.93,4.17,4.17,0,0,1-1.3-1.13,2.93,2.93,0,0,1-.11-2.72,7.4,7.4,0,0,1,1.69-2.25c1.73-1.74,3.76-3.06,5.58-4.67,1.48-1.31,2.91-2.81,4.91-3.38,2.6-.74,6-1.73,8.71-1.17a13.68,13.68,0,0,1,2.6.93" fill="none" stroke="#000" stroke-miterlimit="10"/><path d="M151,115.87c-.23,5,4.87,8.35,9.37,10.51a269.47,269.47,0,0,0,42.56,16.21c-1.09,4.58-2.07,9.5-.37,13.88a32.27,32.27,0,0,1,1.5,3.73,10.77,10.77,0,0,1,.12,3.8c-.71,6.27-3.71,12.4-2.7,18.63.25,1.49.72,3.05.21,4.48a8.34,8.34,0,0,1-2.71,3.12,21.59,21.59,0,0,0-7,12.42,44.65,44.65,0,0,0-.48,5.28q-.15,3.33-.32,6.64a5,5,0,0,0,.15,1.86c.64,1.82,3.06,2.22,5,1.9s3.9-1,5.69-.31c-.37-2.47,1.08-4.9,3-6.52a44.93,44.93,0,0,1,6.36-3.93A30.08,30.08,0,0,0,224.67,190c2.38-8.67.75-18,2.93-26.75,1.51-6,4.77-12.41,2.14-18-2.29-4.88-8-6.84-12.45-9.94-6.06-4.27-10.44-11.45-17.66-13.12-2.45-.56-5-1.13-7.4-1.6a5,5,0,0,0-1.84.11l-14.57,2.7c2,.06,3.55-1.5,5.34-2.32a14.71,14.71,0,0,1,3.89-1l6.37-1" fill="none" stroke="#000" stroke-miterlimit="10"/><path d="M138.55,206.69A13.68,13.68,0,0,0,124.93,193c-17.15-.08-18.25,27.27-.12,27.35a13.69,13.69,0,0,0,13.74-13.62" fill="none" stroke="#000" stroke-miterlimit="10"/><path d="M281.71,203.41A9.86,9.86,0,0,0,268,205.8c-7.13,10.11,8.6,22.06,16.13,11.37a9.87,9.87,0,0,0-2.38-13.76" fill="none" stroke="#000" stroke-miterlimit="10"/><path d="M157.23,193.31a19.72,19.72,0,0,1,3.36,7,31.32,31.32,0,0,1,.75,8.48,30.5,30.5,0,0,1-1.14,8.46,13.86,13.86,0,0,1-4.65,7m-55.8,5a12.79,12.79,0,0,0,7.25,4.69m-10.08-41.3a39.1,39.1,0,0,0,.52,22.12,16.79,16.79,0,0,0,2.4,5c2,2.65,5.15,4.2,7.54,6.53" fill="none" stroke="#000" stroke-miterlimit="10"/><path d="M126.94,255.64a47.29,47.29,0,1,1,47.49-47.08,47.29,47.29,0,0,1-47.49,47.08m.43-98.57c-14.84-.06-32.57,6.75-41,19.35-6.23,9.34-10.48,20.43-10.53,31.71a51.45,51.45,0,0,0,51.06,51.5c27.92.12,51.38-23.21,51.5-51a51.28,51.28,0,0,0-51-51.51" fill="none" stroke="#000" stroke-miterlimit="10"/><path d="M126.94,253.93a45.58,45.58,0,0,1-45.38-45.78c0-9.77,3.54-16.18,8.47-24.29,8.13-13.37,21.44-21.16,37.31-21.09a45.58,45.58,0,0,1-.4,91.16m.41-92.87a47.29,47.29,0,1,0,47.08,47.5,47.3,47.3,0,0,0-47.08-47.5" fill="none" stroke="#000" stroke-miterlimit="10"/><path d="M273.8,256.28a47.29,47.29,0,1,1,47.5-47.08,47.29,47.29,0,0,1-47.5,47.08m.44-98.57c-14.84-.06-32.57,6.75-41,19.36-6.23,9.33-10.48,20.42-10.53,31.7a51.45,51.45,0,0,0,51.06,51.5c27.92.12,51.38-23.21,51.5-51a51.29,51.29,0,0,0-51.05-51.51" fill="none" stroke="#000" stroke-miterlimit="10"/><path d="M273.81,254.57a45.58,45.58,0,0,1-45.38-45.78c0-9.77,3.54-16.18,8.47-24.29,8.13-13.37,21.43-21.16,37.31-21.09a45.58,45.58,0,0,1-.4,91.16m.41-92.87a47.29,47.29,0,1,0,47.08,47.5,47.3,47.3,0,0,0-47.08-47.5" fill="none" stroke="#000" stroke-miterlimit="10"/><path d="M217.92,161.65c-1.91,4.1-4.72,7.65-6.94,12q-7.5,14.5-15.66,28.63c.3-.51-1.63-3.73-1.91-4.31-.77-1.55-1.61-3.05-2.45-4.55-.52-.94-.63-2.32-1.2-3.14-.92-1.33-2.48-.73-3.8-1a2.69,2.69,0,0,1-2-3.05c.16-.77.67-1.45.77-2.23.2-1.55-2.27-4.24-3-5.56l-8.21-14.07c-2.48-4.25-4.39-7.94-7.92-11.37,4.36-1.21,10.24-.36,14.84-.5q7.68-.24,15.36-.66,15.74-.87,31.41-2.56c-.4,1.19-2,1.24-3.2,1.59-2.54.75-3.84,3.55-4.43,6.13a23.7,23.7,0,0,1-1.65,4.72M190.1,206.41c-.79-1.19-11.37-.49-13.09-.55q-7.27-.27-14.56-.43-6.9-.13-13.8-.16c-3,0-11.57,1.59-14-.05-4.67-3.2,23.41-38.65,27.07-43.39a7.34,7.34,0,0,1-1.5-5.05,211.62,211.62,0,0,0,14,25.39q4,6.24,8.47,12.18c2.15,2.88,4.84,9.38,7.82,11.24l-1.67-1ZM260,188.12q-7-10.76-14-21.52c-3.92-6-5.76-11-7.72-18l-5.62-1.71a15.92,15.92,0,0,1,5.29-.2,64.69,64.69,0,0,1,7.11-10.74l-8.33-3.57a1.38,1.38,0,0,0-.71-.15,1.28,1.28,0,0,0-.7.58q-3.65,4.91-7.27,9.82a7.66,7.66,0,0,1-1.53,1.68c-3.09,2.28-9.8.18-13.38.23q-7.65.1-15.29.5-14.9.78-29.7,2.65a5.39,5.39,0,0,1-3.26-.25,5.25,5.25,0,0,1-1.63-1.62l-4.45-5.94c.14.19-7.25,4.33-7.42,5.08-.33,1.41,3.11,4.91,3.74,6.45a9.75,9.75,0,0,1,3.14-3c-1.42,3.81-3.86,7-5.37,10.73a133.85,133.85,0,0,1-6,12.63,173,173,0,0,1-15,23.58c-2.78,3.68-6.57,7.34-8.6,11.48a2.83,2.83,0,0,0-.37,2.1c.41,1.16,2,1.35,3.2,1.34,10.89-.1,21.32-.24,32.23.36,11.55.64,23.19,1.49,34.76,1.54,3.25.11,3.73.55,5.2-1.9,1.07-1.79,1.7-4.55,2.66-6.54q3.36-6.93,7-13.7a301.86,301.86,0,0,1,20.88-33.77,6.5,6.5,0,0,0,1.3-2.46c8.21,8.58,13.24,21.36,18.89,31.69a102.44,102.44,0,0,0,19.12,24.19,40.81,40.81,0,0,0,4.19,3.58,7.27,7.27,0,0,0,3.46,1.59,3,3,0,0,0,3.17-1.68,3.2,3.2,0,0,0-.79-3.12,12.8,12.8,0,0,0-2.69-2c-7.28-4.83-10.93-12.75-15.55-19.88" fill="none" stroke="#000" stroke-miterlimit="10"/><path d="M170.68,126.32a3.94,3.94,0,0,0-.7-2.58,10.15,10.15,0,0,0-5.9-4.07,30.5,30.5,0,0,0-7.26-.88c-6.68-.26-14.48-1.79-21,.24-3.52,1.09-6.81,3.47-8.18,6.89s-.33,7.89,2.87,9.73,7.58.57,11-1.28c3.19-1.75,7.16-4.78,11-4.3s6.63,3.43,11,3.08a7.9,7.9,0,0,0,7.15-6.83" fill="none" stroke="#000" stroke-miterlimit="10"/><path d="M132.64,92.89c3.26-3,8.15-3.07,12.57-3l26.09.4c8.54.12,14.58.06,22.06-4.56a39.2,39.2,0,0,1,6.06-3.47c4-1.56,8.52-1.07,12.8-.56,2,.23,4.15.59,5.34,2.17s.48,3.15,1.06,4.67c.68,1.82,2.2,2.83,3.68,4.09a23.59,23.59,0,0,1,7.2,23.95c-1.41,4.86-4.36,9.11-7.26,13.25-5.28,7.55-10.48,15-17.35,21.22-1.4,1.27-2.93,2.92-2.54,4.77a13.44,13.44,0,0,0,.76,1.9,8.72,8.72,0,0,1-.2,4.95l-.9,3.84a5.37,5.37,0,0,1-.63,1.76,3.59,3.59,0,0,1-2.95,1.44c-1.55,0-2.48-.93-3.84-1.2-1.11-.22-3.71.48-4.48.14,1.09.49,3.31,1,4.13,1.83,1.38,1.42.69.43,1,2.3.26,1.57-.81,3.18-.57,4.64.17,1,1.34,1.85,1.06,2.85s-1.57,1.06-2.56,1l-6.71-.65a1.24,1.24,0,0,0,.62-1.33,1.52,1.52,0,0,1-1.74-2.08l1.73-.47c.28-1.89-1-2.74-1.43-4.34a39.41,39.41,0,0,1-.56-6.16c-2.91-.09-5.87-4.15-4.91-6.95.36-1.05,1.17-1.9,1.59-2.93,1.2-3-1.15-6.42-.25-9.5,2.15-7.36,10.14-6.45,16.57-5.75a35.57,35.57,0,0,1-8.68-2.53c-.82-.36-1.75-.9-1.85-1.8-.2-1.88,3.24-6.44,4.4-7.9,5.6-7,15.82-9.49,20.67-17.07-8.55,4.61-18.23,6.58-27.75,8.48a140.82,140.82,0,0,1-20.37,2.51c-6,.33-12,.68-17.73,2.45-5.41,1.68-11.26,4.62-16.39,2.22-13.16-6.17-5.72-27.26,2.27-34.53" fill="none" stroke="#000" stroke-miterlimit="10"/><path d="M226.79,224.44c7.41,16.27-24.5,6.9-30.37,6-2.84-.45-6-1.1-7.62-3.48-1.24-1.83-2.51-7.59,0-8.93a2.16,2.16,0,0,1,2.36.27,8,8,0,0,1,1.19,1.78,4.45,4.45,0,0,0,6.07,1.07c.94-.69,1.55-1.72,2.42-2.49,2.68-2.4,10.72-.11,14,.2a26.71,26.71,0,0,1,6.77,1.25,8.91,8.91,0,0,1,5.12,4.37" fill="none" stroke="#000" stroke-miterlimit="10"/><path d="M210.35,218.49c-.88.44-.91,1.65-1,2.63s-.59,2.22-1.56,2.1-1.19-1.37-1.18-2.33v-2.65a14.21,14.21,0,0,1-1.37,4.77l-.88-.26c-.22-.06-.5-3.93-.58-4.35-1.16-.08-2.12-.82-3.22-.9a3.78,3.78,0,0,0-2.22,1c-2.17,1.47-5.72,1.12-6.78-1.28A5,5,0,0,0,191,216a1.94,1.94,0,0,0-2.6,0,5.33,5.33,0,0,0-1.52,2.41c-2,5.14,5,6.67,8.79,7l21.55,1.81a3.82,3.82,0,0,0,2.44-.33,2.49,2.49,0,0,0,.9-1.17c.48-1.17-1.13-7.16-2.48-6.32a1.94,1.94,0,0,0-.63,1.7,2.08,2.08,0,0,1-.6,1.73c-.76.53-1.8-.22-2.21-1.06a4.42,4.42,0,0,1-.38-2.75c-.74-.09-1.3.69-1.43,1.43a13.48,13.48,0,0,1-.26,2.21c-.25.7-1.13,1.27-1.73.82a1.69,1.69,0,0,1-.45-1.38c0-1.18,0-2.37,0-3.56" fill="none" stroke="#000" stroke-miterlimit="10"/><path d="M208.17,211.81c0-4.89-4.09-9.19-9-10,3,.49,1.51-1.79,2.72-2.94,1.79-1.7,3.86-.68,6.41-1.48a5.26,5.26,0,0,0,3.83-4.08,2.56,2.56,0,0,0-.46-1.87c-.75-.92-2.11-.92-3.28-.85-5,.31-10,.67-14.76,2.33-2.05.71-4.33,2.16-4.23,4.33a1.7,1.7,0,0,0,1.27,1.68,2.92,2.92,0,0,0,1.5-.43,3.17,3.17,0,0,1,3,.09,1.84,1.84,0,0,1,.42,2.69,2.94,2.94,0,0,1-1.22.58c-5.06,1.52-8.58,3.72-8.6,9.84,0,3.66,2.25,9.34,6.57,9.62a3.59,3.59,0,0,1,1.67.28c.49.3.64,1.16.11,1.38l2.88,1.93a25.77,25.77,0,0,0-.11,4.73,4.22,4.22,0,0,0-4.25,0,2.63,2.63,0,0,0-.59,3.85,4.29,4.29,0,0,0,2.06.91l7.72,1.82a7.47,7.47,0,0,0,4.26.15c1.36-.5,2.37-2.19,1.63-3.43a3.27,3.27,0,0,0-2.86-1.2,7.11,7.11,0,0,1-3.19-.37,7.39,7.39,0,0,0,.5-4.23,7.58,7.58,0,0,1-.26-2,5,5,0,0,1,.77-2c2.15-3.82,5.53-6.71,5.55-11.36" fill="none" stroke="#000" stroke-miterlimit="10"/><path d="M221.28,183.13c11.44,13.75-21.81,13.1-27.71,13.75-2.87.31-6.09.52-8.28-1.36-1.67-1.43-4.42-6.65-2.32-8.62a2.18,2.18,0,0,1,2.35-.36,8.58,8.58,0,0,1,1.62,1.4,4.43,4.43,0,0,0,6.13-.57,34.25,34.25,0,0,0,1.68-3c1.95-3,10.31-2.92,13.59-3.49a26.46,26.46,0,0,1,6.86-.58,8.89,8.89,0,0,1,6.08,2.87" fill="none" stroke="#000" stroke-miterlimit="10"/><path d="M203.87,181.72c-.74.65-.45,1.83-.25,2.79s0,2.3-1,2.44-1.5-1-1.75-1.94-.45-1.7-.68-2.56a14.25,14.25,0,0,1-.07,5h-.92c-1.37,0-1.28-6.54-3.87-6.08a1.13,1.13,0,0,0-.79.77,7.48,7.48,0,0,0-.21,1.13c-.6,3.23-6.8,4.87-8.92,2.25a4.8,4.8,0,0,0-.9-1.05,2,2,0,0,0-2.53.63,5.37,5.37,0,0,0-.83,2.73c-.6,5.49,6.58,5.12,10.32,4.43l21.27-3.92a3.84,3.84,0,0,0,2.26-1,2.5,2.5,0,0,0,.56-1.36c.16-1.26-3-6.62-4.06-5.44a2,2,0,0,0-.16,1.8,2.06,2.06,0,0,1-.11,1.82c-.6.72-1.8.27-2.42-.43a4.44,4.44,0,0,1-1.09-2.56c-.74.11-1.07,1-1,1.76a12.71,12.71,0,0,1,.33,2.2c-.05.74-.76,1.52-1.45,1.25a1.69,1.69,0,0,1-.8-1.21c-.32-1.15-.65-2.29-1-3.43" fill="none" stroke="#000" stroke-miterlimit="10"/><path d="M249,151.24c.19,0,3-12.46,3.18-13.36-6.24-1.14-15.47,4.57-8.59,10.93a12.18,12.18,0,0,0,5.41,2.43" fill="none" stroke="#000" stroke-miterlimit="10"/><path d="M264.85,122.15a.81.81,0,0,0-.39.22,1.39,1.39,0,0,0-.31.77,1.53,1.53,0,0,1-.19.73,1,1,0,0,1-1.24.12,6.18,6.18,0,0,0-1.18-.65c-1.06-.28-1.7.6-2.29,1.29s-1.13.76-1.82,1.28c-1.31,1-2.23,3.77-1.52,5.27.9,1.91,3.79,1.88,5.11,3.53,1.06,1.32,1.56,2.3,3.14,3.14a4.68,4.68,0,0,0,4.61.06,5.36,5.36,0,0,0,2.66-3.62,5.47,5.47,0,0,1,.3-1.27c.32-.67,1-1.1,1.34-1.77.5-1.07-.15-2.3-.09-3.48a11.37,11.37,0,0,1,.65-2.38,2.38,2.38,0,0,0-.36-2.33,2.52,2.52,0,0,0-2.71-.11,6.3,6.3,0,0,1-2.71.87,3.14,3.14,0,0,1-2.26-1.27,1,1,0,0,0-.36-.36.55.55,0,0,0-.38,0" fill="none" stroke="#000" stroke-miterlimit="10"/><path d="M262.47,120.6a6.24,6.24,0,0,0-3-1.23c-4.65-1.1-8.76-3.81-13.27-5.41-8.28-2.95-17.36-2-26.09-1.09.89-1.84,4.07-1.47,5-3.31s.13-4.69-.15-7.11a12.72,12.72,0,0,0,10.29-8.62,15.67,15.67,0,0,0-2.34-13.72c-4-5.62-10.87-8.34-17.43-10.49a88.38,88.38,0,0,0-13.72-3.56c-11.29-1.78-22.79,0-34.07,1.88-5.51.89-11.11,1.81-16.18,4.15-5.94,2.72-9.38,7-14.14,11.12s-9.4,8.4-13.94,12.76c-.8.76-1.65,1.74-1.41,2.81a4.69,4.69,0,0,0,.71,1.32,5.14,5.14,0,0,1,.37,4.52c-.49,1.19-1.44,2.23-1.56,3.52-.17,1.85,1.55,3.45,3.38,3.82a11.55,11.55,0,0,0,5.49-.69c9.19-2.72,17.86-5.28,27.42-6.21,9.4-.92,18.85-1.09,28.23-2.2,3-.36,13.13-.45,15.08-3.61a1.94,1.94,0,0,0,.24-.89q1-8.74,1.93-17.47-.31,9.85-.15,19.71c.09,5.32-.43,9.73,2.9,14.26a26.5,26.5,0,0,0,8.62,7,38.94,38.94,0,0,0,15.94,5.3c5.53.4,12.82-1.39,17.76,1.89,3.47,2.31,5.1,7.29,10.13,3a16.64,16.64,0,0,0,3.63-5.18c1.05-2,2-4.74.39-6.33" fill="none" stroke="#000" stroke-miterlimit="10"/><path d="M281,177.57c5-1.53,10.57,0,14.73,3.11s7,7.75,8.91,12.59a45.08,45.08,0,0,1,3.08,18.91M251.8,228.54a24.88,24.88,0,0,0,9,5.71M240.75,216a23.51,23.51,0,0,0,13,19.33" fill="none" stroke="#000" stroke-miterlimit="10"/><path d="M227.38,47.94c-4.28,2.1-8.85,5.4-11.63,9.31-4.19,5.89-.19,8.91,5.21,11.21l-1.78.5a1.59,1.59,0,0,0,1.46,1.54c-.83,1.13-2.56,1.43-3.18,2.7s.41,3,1.78,3.49a8.07,8.07,0,0,0,4.36,0,2.75,2.75,0,0,0,1,3.31,4.22,4.22,0,0,0,3.58.51c1.24-.34,2.5-1.36,2.38-2.64,0-.33-.14-.71.06-1s.67-.25,1.05-.23A3.37,3.37,0,0,0,235,73.26a2.11,2.11,0,0,0,2.82-.34c.24-.29.39-.63.62-.92.7-.89,1.95-1.07,3-1.38s2.29-1,2.29-2.18a2.54,2.54,0,0,0,2.76.39,16.77,16.77,0,0,1,2.75-1.06,11,11,0,0,1,2.63.09c1.89.12,3.31-.78,5.08-1a41.61,41.61,0,0,1,5.66.33c1.41.06,3.05,0,3.89-1.13a3.92,3.92,0,0,0,.54-2.55c-.35-8.43-7.1-15.77-15.14-18.34s-17-1-24.56,2.75" fill="none" stroke="#000" stroke-miterlimit="10"/><path d="M261.51,60.57c2.18,2.3.85-3.34.6-4a18,18,0,0,0-4.78-6.72A16.45,16.45,0,0,0,251,46.65c-1.31-.37-5.61,0-6.41-.61,4.18,3.24,10.06,4.34,13.2,8.61,1.39,1.88,2.1,4.23,3.72,5.92" fill="none" stroke="#000" stroke-miterlimit="10"/><path d="M252,76.68c3,1.14,9,0,9.62-3.85.29-1.72-1.37-3.28-3.1-3.54-2.85-.43-5.24,1.77-8.09,1l-9.88-2.56a5.41,5.41,0,0,0-2.22-.24A1.8,1.8,0,0,0,236.8,69c3.18,1.92,7.15,1.77,10.69,2.85a1.81,1.81,0,0,1,.84.45,2.3,2.3,0,0,1,.38,1A5.31,5.31,0,0,0,252,76.68" fill="none" stroke="#000" stroke-miterlimit="10"/><path d="M260.2,74.15A8.46,8.46,0,0,1,256,75.92c-1.27.15-2.92-.3-3.08-1.58a2.27,2.27,0,0,1,.56-1.59A5.41,5.41,0,0,1,259.56,71c.63.24.61.53.72,1.19a1.67,1.67,0,0,1-.84,1.68" fill="none" stroke="#000" stroke-miterlimit="10"/><path d="M10.06,57.09c1.14-.06,2.27-.12,3.41-.16,8.07-.29,15.09,1.19,22.93,2.49,7.62,1.27,15.92,1.21,23.7,2,1.13.12,2.65.8,1.78,2.09-.32.48-3.56.45-4.14.52a94.37,94.37,0,0,1-12.36.55c-7.87-.15-15.71-1-23.56-1.55a235.62,235.62,0,0,0-29.11-.09c-8.8.51-16.92.77-25.55-1.69a5.38,5.38,0,0,1-2.34-1.13,1.93,1.93,0,0,1-.39-2.38c.66-.92,2-.73,3.15-.48,14,3.23,28.34.66,42.48-.17" fill="none" stroke="#000" stroke-miterlimit="10"/><path d="M17,187.27,21.78,186A24.49,24.49,0,0,0,25,185a2.45,2.45,0,0,0,1.16-.81,1,1,0,0,0-.12-1.3,1.48,1.48,0,0,0-.83-.19l-5.95-.14a39.39,39.39,0,0,0-4.21.06c-3.23.27-5.59,1.85-8.57,2.7-2.83.81-6.15,1-9.08,1.49-.86.15-2,.78-1.63,1.58a1.48,1.48,0,0,0,.85.62c5,2,8.58,1.44,13.63.09L17,187.27" fill="none" stroke="#000" stroke-miterlimit="10"/><path d="M-123.24,137.34a843.49,843.49,0,0,1,99-1.06M101.92,121.8q18.77.58,37.56.38m-97.09-10A898.78,898.78,0,0,0,162,115.86M126.42,63.35a251,251,0,0,1,37.05-2.5" fill="none" stroke="#000" stroke-miterlimit="10"/><path d="M97.85,276.52c12.07-1,24.11-1.61,36.15-2.83,4-.4,8.46-1.17,11-4.33a2.16,2.16,0,0,0,.57-1.28c0-1.35-1.83-1.74-3.18-1.68q-31.87,1.47-63.54,5.89c-1.2.17-6.59.92-6.48,2.86s5.34,1.76,6.51,1.89c6.32.71,12.68,0,19-.52" fill="none" stroke="#000" stroke-miterlimit="10"/><path d="M437.49,207.56c-2.71-4.57-1.92-10.28-2.24-15.58-.52-8.66-4.16-16.78-7.92-24.59-7.49-15.59-16-31.25-29.34-42.26s-32.59-16.43-48.31-9.23c-7.36,3.38-13.36,9.17-18.47,15.45A105.75,105.75,0,0,0,309,180.68c-3.61,22-5,43.43-15.86,63.51l6.94-.62c-13.38,8.52-28.13,14.32-41.23,23.77-12.51,9-24.28,20.18-30.6,34.52-7.89,17.92-3.3,39.84,8.84,55.21s30.8,24.63,50,28.38c42.06,8.23,88.14-10.08,113.08-44.92,5.66-7.9,10.39-16.88,11-26.57" fill="none" stroke="#000" stroke-miterlimit="10"/><path d="M322.74,135c-1.37,2.59-5.48,16.4-8,16.67-.91.1-1.3-1.14-1.3-2.06,0-7,2.55-15.37,8-20.08a1.49,1.49,0,0,1,.85-.44c.7,0,1,.87,1.06,1.56a11.18,11.18,0,0,1-1.72,6.73" fill="none" stroke="#000" stroke-miterlimit="10"/></svg>