<svg id="Layer_1" data-name="Layer 1" xmlns="http://www.w3.org/2000/svg" xmlns:xlink="http://www.w3.org/1999/xlink" viewBox="0 0 420.05499 595.276"><defs><clipPath id="clip-path"><path d="M360.439,231.998c-2.508,6.21-4.939,12.85-8.66,18.451l1.347-1.104c1.997-2.926,4.745-5.28,6.724-8.22a19.66616,19.66616,0,0,0,2.892-14.827q-1.152,2.85-2.303,5.7" fill="none" stroke="#000" stroke-miterlimit="10"/></clipPath></defs><title>sport</title><g opacity="0.05"><g clip-path="url(#clip-path)"><rect x="351.77899" y="226.298" width="12.02399" height="24.151" fill="none" stroke="#000" stroke-miterlimit="10"/></g><path d="M360.439,231.998c-2.508,6.21-4.939,12.85-8.66,18.451l1.347-1.104c1.997-2.926,4.745-5.28,6.724-8.22a19.66616,19.66616,0,0,0,2.892-14.827q-1.152,2.85-2.303,5.7" fill="none" stroke="#000" stroke-miterlimit="10"/></g><g opacity="0.05"><path d="M265.5184,276.35641a5.45768,5.45768,0,0,1,3.052-3.082c.466-.147.956-.197,1.429-.323,2.47-.66,3.934-3.249,4.476-5.748a7.52486,7.52486,0,0,0,.004-3.788,3.796,3.796,0,0,0-2.545-2.634c-1.889-.473-3.728.967-4.873,2.543a14.262,14.262,0,0,0-2.273,4.822,4.36767,4.36767,0,0,0-.145,2.027,1.865,1.865,0,0,0,1.295,1.452c.695.157,1.72-.041,1.878.653a9.08315,9.08315,0,0,1-2.249.164,52.11678,52.11678,0,0,1-2.104,5.816c0-3.272-.98-6.303-.696-9.683a28.29807,28.29807,0,0,1,2.918-10.77,2.51577,2.51577,0,0,1,.956-1.144,3.65461,3.65461,0,0,1,2.063-.031c3.243.344,5.969-2.637,6.98-5.737a8.85061,8.85061,0,0,0,.145-5.696,5.15756,5.15756,0,0,0-4.237-3.488,6.26307,6.26307,0,0,0-3.818,1.244c-1.978,1.325-4.109,4.038-4.399,6.49-.163,1.384,1.023,5.984,2.911,6.14-.557-.046-1.116-.092-1.673-.139-1.336,4.301-3.261,8.301-3.691,12.877.672-7.135.949-17.469-2.705-23.902a.78082.78082,0,0,1-.996.611c.915.332,1.94-5.087,1.951-5.654a8.40774,8.40774,0,0,0-1.847-5.455c-1.834-2.402-5.29-3.636-8.056-2.411-2.438,1.079-3.828,3.681-4.603,6.233a13.09614,13.09614,0,0,0-.494,6.704,6.9464,6.9464,0,0,0,4.132,5.045c3.077,1.107,6.512-.738,8.637-3.224a51.14223,51.14223,0,0,1,2.09,11.204c.257,3.426-.528,6.631-.529,10.025-.066-2.307,1.011-7.67-2.278-8.301a4.15884,4.15884,0,0,0-3.012.759c-3.646,2.413-4.083,9.215-.61,11.956,2.166,1.711,5.85,1.369,7.226-1.023.385,2.531,1.318,5.497,1.053,8.071a8.79428,8.79428,0,0,0-4.719-1.417,2.18528,2.18528,0,0,1-.638,1.996c.832-2.274-1.535-3.961-3.637-2.884-1.844.946-1.847,4.189.088,4.932a3.97519,3.97519,0,0,0,5.09-2.676,4.88758,4.88758,0,0,1,2.148.324c2.339,1.118,1.183,2.796,1.131,4.597,1.608-.449,3.911-.222,4.563-1.672.666-1.482-.236-3.988.611-5.803" fill="none" stroke="#000" stroke-miterlimit="10"/><path d="M242.43021,267.7124c.588.905,1.139,1.835,1.663,2.778,1.123,2.022-3.196,2.071-4.395,2.364q-2.2785.55646-4.514,1.265c-1.018.323-2.345.418-2.755,1.573a3.41748,3.41748,0,0,0-.039,1.81c.906,4.494,5.13,8.112,8.336,11.051a5.80172,5.80172,0,0,0,3.251,1.862c-1.553-.116-6.141,1.674-6.782,3.289,1.934.57,4.211.045,6.193-.001a3.09935,3.09935,0,0,0,1.535-.315c1.622-.984,1.352-3.32.342-4.646a26.39544,26.39544,0,0,1-2.537-5.113,20.18364,20.18364,0,0,0-1.44-2.732c-.234-.342-2.693-2.503-3.085-2.09q-.5595.591-1.12,1.181c.245-.956.799-2.253-.303-2.938a4.60458,4.60458,0,0,0,2.492,1.312,14.988,14.988,0,0,0,2.985-.146,17.749,17.749,0,0,0,5.69-1.763,5.35223,5.35223,0,0,0,3.017-3.044c.475-1.773-.433-4.077-.773-5.836a9.874,9.874,0,0,0-2.475-5.355c-.859-.839-1.946-1.422-2.766-2.298q1.5975.774,3.196,1.549c.733.354,1.638.7,2.307.238a2.23478,2.23478,0,0,0,.738-1.514,24.50142,24.50142,0,0,0,.393-5.021.96642.96642,0,0,0-.145-.584.92491.92491,0,0,0-.425-.258,7.81615,7.81615,0,0,0-1.996-.444,35.3467,35.3467,0,0,1-1.175,4.79,3.96605,3.96605,0,0,0-.039-2.332,1.9307,1.9307,0,0,0-1.799-1.291,7.12457,7.12457,0,0,0-2.578-4.828,6.52157,6.52157,0,0,0-4.81-2.056,3.97308,3.97308,0,0,0-3.286,2.844c-.128.809.552,1.543.729,2.307a7.51656,7.51656,0,0,1-.105,3.279,4.76449,4.76449,0,0,1,1.676-.129c.171.048.737.809.953.416-.49.897,1.027,1.22,1.586.825a5.19107,5.19107,0,0,0,1.189-2.521,1.6119,1.6119,0,0,0,.344,1.728,2.38861,2.38861,0,0,1,1.257-.565q-.80551,1.00648-1.608,2.015a7.50564,7.50564,0,0,0-1.029,1.531c-1.34,2.944.602,5.499,2.107,7.813" fill="none" stroke="#000" stroke-miterlimit="10"/><path d="M241.3002,247.5509a4.10028,4.10028,0,0,0-2.373-.644.22768.22768,0,0,0-.102.267,5.39956,5.39956,0,0,0-2.292-.298.52313.52313,0,0,0,.375.479q-.6555.21-1.313.419a1.198,1.198,0,0,0,.281.504,1.42646,1.42646,0,0,0-1.091.225.89414.89414,0,0,0-.313,1.016,4.31351,4.31351,0,0,0-.774,1.977l.006.16c.061.177.332.155.479.035.144-.119.248-.299.424-.364a2.86,2.86,0,0,1,.309-.058c.309-.079.475-.404.65-.67a5.7448,5.7448,0,0,1,2.928-1.891,3.40109,3.40109,0,0,1,1.367-.316c1.158.057,1.987,1.242,3.132,1.43a3.8711,3.8711,0,0,0-2.547-2.638" fill="none" stroke="#000" stroke-miterlimit="10"/><path d="M240.0746,262.0029l-.148.225a3.71552,3.71552,0,0,0-.494.906c-.357,1.109.373,2.24.996,3.224,1.006,1.59,1.488,3.432,2.426,5.019,1.024,1.732,2.817.317,4.345.118,1.225-.16,2.466.342,3.687.159.879-.132,1.767-1.21,1.271-2.122a1.79025,1.79025,0,0,0-1.095-.698q-.61649-.204-1.232-.407a4.38531,4.38531,0,0,1,1.771-.053.88776.88776,0,0,0-.24-.977,7.78162,7.78162,0,0,1-.764-.755c-.375-.543-.288-1.285-.568-1.883a7.57179,7.57179,0,0,0-1.884-2.741c-.861-.708-1.958-1.065-2.878-1.694a2.75049,2.75049,0,0,1-1.385-2.805,3.86245,3.86245,0,0,1,1.866-2.237,6.715,6.715,0,0,1,.988-.38c-.516-.498-1.38-.209-1.975.191a9.50288,9.50288,0,0,0-2.823,3.458c-.69,1.154-1.14,2.32-1.864,3.452" fill="none" stroke="#000" stroke-miterlimit="10"/><path d="M240.5993,272.32339q.609,1.22553,1.214,2.451a1.26352,1.26352,0,0,0,.464.594,1.16576,1.16576,0,0,0,.543.099,7.73236,7.73236,0,0,0,2.07-.261,3.25128,3.25128,0,0,1-1.779,1.275c.219,1.35.695,2.986,2.036,3.256a3.197,3.197,0,0,0,2.4-.843,11.29185,11.29185,0,0,0,3.164-3.275c1.061-1.813,1.818-5.364-1.08-5.602-.857-.07-9.335,1.692-9.032,2.306" fill="none" stroke="#000" stroke-miterlimit="10"/><path d="M259.00949,250.65271a8.27329,8.27329,0,0,0-8.274-8.273,8.47368,8.47368,0,0,0-8.273,8.273,8.27351,8.27351,0,1,0,16.547,0" fill="none" stroke="#000" stroke-miterlimit="10"/><path d="M252.1315,250.65271a1.3335,1.3335,0,1,0-1.333,1.334,1.33324,1.33324,0,0,0,1.333-1.334" fill="none" stroke="#000" stroke-miterlimit="10"/><path d="M328.61249,259.96811q-1.40551-.44847-2.838-.8c-.957-.235-2.111-.626-2.272-1.597a2.51449,2.51449,0,0,1,.959-1.968,29.71065,29.71065,0,0,1,4.902-4.453,16.39687,16.39687,0,0,0,2.074-1.467,1.28725,1.28725,0,0,1,.324.893,4.08826,4.08826,0,0,0,.039,1.341q-1.09653,1.21354-2.192,2.429c-.654.725-1.228,1.679-2.23,1.921a3.69838,3.69838,0,0,1-.865.093,9.89744,9.89744,0,0,1-1.295-.113,9.52252,9.52252,0,0,0,4.496,1.359q-.552,1.182-1.102,2.362" fill="none" stroke="#000" stroke-miterlimit="10"/><path d="M332.13861,252.41782a1.21041,1.21041,0,0,1-.338-.501,4.088,4.088,0,0,1-.039-1.341,1.28741,1.28741,0,0,0-.324-.893.63313.63313,0,0,0-.321-.169,2.91148,2.91148,0,0,0,.04-1.614,1.11788,1.11788,0,0,0-.966-.728.701.701,0,0,0-.328.081,1.562,1.562,0,0,0-.474.48,9.95377,9.95377,0,0,1-5.053,3.523,5.26877,5.26877,0,0,1-1.493.252,2.92726,2.92726,0,0,1-.852-.119c1.078-.696,1.41-2.082,1.857-3.284a6.11161,6.11161,0,0,1,2.75-3.467,3.50564,3.50564,0,0,1,1.553-.357,2.83434,2.83434,0,0,1,2.475,1.246c.176.292.355.664.695.689.012.001.024.001.035.001.341,0,.563-.37.746-.669a4.10049,4.10049,0,0,1,3.444-1.904,3.75243,3.75243,0,0,1,.635.054c.016.002.031.005.047.008-.04.083-.08.166-.119.249q-1.989,4.23-3.97,8.463" fill="none" stroke="#000" stroke-miterlimit="10"/><path d="M293.24689,251.35959a2.18261,2.18261,0,0,1,.358-.768,5.81146,5.81146,0,0,0,.651-.902.95611.95611,0,0,0-.067-1.045,2.74853,2.74853,0,0,0-.365-.275,1.34912,1.34912,0,0,1-.38-1.629c.279-.557.97-.984.866-1.598-.083-.488-.638-.753-.824-1.211a1.26035,1.26035,0,0,1,.262-1.21,7.414,7.414,0,0,1,.948-.881.4638.4638,0,0,0,.189-.308l-.076-.242a1.63377,1.63377,0,0,1,.725-1.915,4.134,4.134,0,0,1,1.798-.444,8.29625,8.29625,0,0,1,1.204-.258,1.195,1.195,0,0,1,.31.04,4.75877,4.75877,0,0,0,1.197.322c.037,0,.073-.002.111-.005.31-.03.593-.194.902-.231a.70905.70905,0,0,1,.098-.007c.318,0,.358.224.584.383a5.48407,5.48407,0,0,0,.615.383c.114.062.231.125.348.191a3.12309,3.12309,0,0,1,1.393,1.262,3.35916,3.35916,0,0,1,.248,1.332,37.80367,37.80367,0,0,1-.051,4.218,2.812,2.812,0,0,1-.226,1.081c-.174.341-.491.644-.472,1.025a1.38672,1.38672,0,0,0,.218.576,7.38359,7.38359,0,0,1,.62,1.513,4.15066,4.15066,0,0,0-2.02-.553h-.039c-.136,0-.475.006-.826.011-.355.005-.723.011-.91.011h-.052a2.16239,2.16239,0,0,0-.118-.263l-.15-.169.073-.001a.62333.62333,0,0,0,.278-.044.6328.6328,0,0,0,.262-.388q.663-1.893,1.135-3.844a1.83905,1.83905,0,0,0,.075-.627c-.022-.196-.105-.381-.13-.577-.075-.618.442-1.166.482-1.787a1.34824,1.34824,0,0,0-.084-.579.64761.64761,0,0,0,.19-.787,1.67177,1.67177,0,0,0-.788-.676,6.60934,6.60934,0,0,0-2.986-.939,3.33188,3.33188,0,0,0-.636.06l-2.456,2.191c.203-.137.405-.274.608-.411a1.456,1.456,0,0,0-.257.669c-.046.39.186.649.252,1.017a2.81581,2.81581,0,0,1-.202,1.345,5.55984,5.55984,0,0,0,.517,4.37,1.96736,1.96736,0,0,0,1.024.957l.213.036-.161.184c-.089.158-.142.345-.223.505a.3526.3526,0,0,0-.031-.023.3998.3998,0,0,0-.202-.045,1.35236,1.35236,0,0,0-.143.009,17.66,17.66,0,0,0-2.689.242,5.10188,5.10188,0,0,0-.995.576c-.065.044-.13.089-.195.133" fill="none" stroke="#000" stroke-miterlimit="10"/><path d="M311.59018,249.47491a1.55988,1.55988,0,0,0-.176-.47,1.04761,1.04761,0,0,1,.116.171,1.1528,1.1528,0,0,1,.109.287l-.049.012m-21.745.264-.012-.001.005-.008.007.009m18.276.635c.005-.044.012-.089.021-.134.013.038.027.075.041.112-.021.008-.041.015-.062.022m.276.929c-.056-.011-.114-.02-.173-.026-.004-.015-.008-.03-.011-.045.062-.024.125-.048.188-.07a1.34349,1.34349,0,0,1-.004.141m-8.31,3.416c-.058,0-.116,0-.173-.001a4.24185,4.24185,0,0,1-2.359-.5,2.45265,2.45265,0,0,1-.984-1.543c-.157-.781-.037-1.8.961-1.934a.188.188,0,0,0-.031-.273c.082-.161.135-.348.224-.505l.161-.184-.213-.037a1.95952,1.95952,0,0,1-1.024-.957,5.557,5.557,0,0,1-.517-4.369,2.82986,2.82986,0,0,0,.202-1.345c-.066-.368-.298-.627-.252-1.018a1.44572,1.44572,0,0,1,.257-.668c.063-.043.126-.085.189-.127a.64049.64049,0,0,1,.344-.144h.01a.60825.60825,0,0,1,.373.207,8.4547,8.4547,0,0,1,1.105,1.277c.199.283.438.612.784.62h.014c.406,0,.655-.432.932-.733a1.86907,1.86907,0,0,1,1.358-.584,1.72,1.72,0,0,1,.392.044,1.57865,1.57865,0,0,0,.343.063.43237.43237,0,0,0,.072-.005.40758.40758,0,0,0,.152-.056,1.36386,1.36386,0,0,1,.084.579c-.04.621-.557,1.168-.482,1.786.024.196.108.381.13.577a1.88336,1.88336,0,0,1-.075.627q-.4725,1.95-1.135,3.844a.6302.6302,0,0,1-.262.388.61282.61282,0,0,1-.278.045l-.073.001.149.169a1.89539,1.89539,0,0,1,.118.263.35244.35244,0,0,1-.071-.004.46067.46067,0,0,0,.201.455,4.29351,4.29351,0,0,0,.462.253,1.6617,1.6617,0,0,1,.746,1.178,3.17531,3.17531,0,0,1-.144,1.419,1.77791,1.77791,0,0,1-.531.908,1.84056,1.84056,0,0,1-1.159.284m-11.311,10.328a2.71706,2.71706,0,0,1-.339-.028,5.6166,5.6166,0,0,1-2.985-.978,4.77053,4.77053,0,0,1-1.258-3.92,21.73688,21.73688,0,0,1,2.007-7.748,4.46442,4.46442,0,0,0,.364-1.062,1.4426,1.4426,0,0,1-.008.174,2.563,2.563,0,0,1-.211.694q-.41249,1.008-.826,2.019l4.07-1.364a1.62727,1.62727,0,0,1,.126-.926,1.2666,1.2666,0,0,0,.164-.459.9362.9362,0,0,0-.069-.319,3.63158,3.63158,0,0,1-.103-.364c.116.026.231.051.347.076-.055.401-.206.803-.302,1.202-.398,1.653.171,3.412-.155,5.081-.255,1.303-1.047,2.614-.611,3.868a32.92413,32.92413,0,0,1,1.832-5.503c.127-.292.259-.583.399-.871.622.822,1.413,1.528,1.96,2.406a2.664,2.664,0,0,1,.347,1.917l-.017.191a.59263.59263,0,0,0,.128.244,1.3278,1.3278,0,0,1,.193,1.029,2.96043,2.96043,0,0,1-.681,1.125,6.65136,6.65136,0,0,1-.021-2.497,11.07548,11.07548,0,0,1-1.149,3.261,14.77755,14.77755,0,0,1-2.454,2.383,1.33051,1.33051,0,0,1-.414.311.884.884,0,0,1-.334.058m20.933.139a.91439.91439,0,0,1-.266-.038,5.40774,5.40774,0,0,1-2.725-1.833c-.646-.821-.455-1.652-.516-2.632a2.44988,2.44988,0,0,0-.663-1.682c.058.282.114.565.172.847a1.222,1.222,0,0,1,.029.52,1.43634,1.43634,0,0,1-.165.353,4.21681,4.21681,0,0,0-.423,1.157,2.24945,2.24945,0,0,1-.495-.585,1.32521,1.32521,0,0,1-.038-1.159.56647.56647,0,0,0,.088-.347c-.031-.124-.154-.196-.252-.276a1.26679,1.26679,0,0,1-.322-1.298,3.73386,3.73386,0,0,1,.694-1.221,8.61846,8.61846,0,0,0,1.535-2.309c.042-.132.084-.264.123-.395a.58169.58169,0,0,0,.339.117c.012,0,.026-.001.04-.002.181.357.347.722.507,1.087a33.01837,33.01837,0,0,1,1.831,5.503c.435-1.254-.356-2.565-.61-3.868a22.47447,22.47447,0,0,1-.01-3.857l3.238-1.044a4.01682,4.01682,0,0,1-.11-.554,7.046,7.046,0,0,0,.279.703,21.73549,21.73549,0,0,1,2.006,7.748,4.77062,4.77062,0,0,1-1.258,3.92,4.57439,4.57439,0,0,1-1.867.806,4.74582,4.74582,0,0,1-1.161.339m-4.747,28.616c.12-.327.327-.655.45-.982.482-1.285-.342-2.643-.95-3.874a13.27907,13.27907,0,0,1-1.057-8.628,3.60363,3.60363,0,0,0,.142-1.271,3.17094,3.17094,0,0,0-.378-.986c-.074-.145-.158-.296-.247-.451a18.62037,18.62037,0,0,1-1.289-2.447,19.64937,19.64937,0,0,1,3.333-1.182c-.001.021-.001.042-.001.063a14.01441,14.01441,0,0,0,.185,3.024,21.06928,21.06928,0,0,0,.83,2.562,39.4655,39.4655,0,0,1,1.672,9.872c.093,1.157-.177,3.063.81,3.668a6.69388,6.69388,0,0,0,1.382.608c-.134,0-.267,0-.401.001q-2.23953.012-4.481.023m-11.733.007c-1.591-.013-3.219-.027-4.856-.041a6.57145,6.57145,0,0,0,1.354-.598c.987-.605.717-2.511.811-3.668a39.37511,39.37511,0,0,1,1.67-9.872,21.07977,21.07977,0,0,0,.832-2.562,14.14353,14.14353,0,0,0,.184-3.024v-.038a31.26043,31.26043,0,0,0,3.509,1.057c-.57,1.112-1.288,2.175-1.713,2.998a3.17087,3.17087,0,0,0-.378.986,3.62643,3.62643,0,0,0,.142,1.271,13.27287,13.27287,0,0,1-1.058,8.628c-.607,1.231-1.431,2.589-.95,3.874.124.33.334.659.453.989" fill="none" stroke="#000" stroke-miterlimit="10"/><path d="M301.33371,275.49219c-.282-.593-.569-1.182-.848-1.777a7.84186,7.84186,0,0,0-.562-1.394l-.075-.144c-.014-.119.112-.2.218-.254a4.87948,4.87948,0,0,0,1.382-1.066q-.9255.213-1.861.38a3.54791,3.54791,0,0,1-.64.053c-.129,0-.256-.005-.383-.009-.127-.005-.254-.01-.386-.01-.101,0-.206.003-.314.011a.58759.58759,0,0,1,.419.456c.188.83-.775,2.7-1.211,3.395-.114-.022-.227-.046-.339-.07a31.18656,31.18656,0,0,1-3.509-1.057c-.762-.264-1.519-.532-2.268-.766h.001c.113,0,1.773-3.834,1.908-4.198a12.03366,12.03366,0,0,1,.558-1.733,6.22645,6.22645,0,0,1,1.707-.216,18.13523,18.13523,0,0,1,2.589.253,18.36768,18.36768,0,0,0,2.602.252,6.5243,6.5243,0,0,0,1.663-.197,18.1109,18.1109,0,0,1,2.663-.808c.022-.002.045-.004.067-.007a1.28394,1.28394,0,0,1,.066.263,28.51751,28.51751,0,0,0,1.616,6.769c-.126.013-.706.157-1.431.363a19.68225,19.68225,0,0,0-3.333,1.182c-.224.128-.341.241-.299.329" fill="none" stroke="#000" stroke-miterlimit="10"/><path d="M300.32181,267.59821a18.35387,18.35387,0,0,1-2.602-.252,18.13089,18.13089,0,0,0-2.589-.253,6.21568,6.21568,0,0,0-1.707.216c-.119.033-.237.071-.355.114l-.18.013-.077-.186a3.35255,3.35255,0,0,1,.288-1.988,1.57242,1.57242,0,0,0,.26-.478c.082-.382-.251-.711-.424-1.063a1.73067,1.73067,0,0,1-.009-1.896c.069-.101.145-.198.222-.295a2.97442,2.97442,0,0,0,.681-1.124,1.32657,1.32657,0,0,0-.194-1.03.6045.6045,0,0,1-.128-.244l.018-.191a2.65773,2.65773,0,0,0-.348-1.916c-.546-.879-1.338-1.584-1.96-2.406a5.67441,5.67441,0,0,1-.497-.769c.295-.039.541-.363.69-.654q.216-.42151.403-.857.71553-.49053,1.433-.98c.065-.044.13-.088.195-.133a5.04446,5.04446,0,0,1,.995-.575,17.65286,17.65286,0,0,1,2.689-.243,1.35548,1.35548,0,0,1,.143-.008.3895.3895,0,0,1,.202.045c.011.007.021.015.031.022a.18975.18975,0,0,1,.03.274c-.998.134-1.118,1.153-.961,1.934a2.45,2.45,0,0,0,.985,1.543,4.24483,4.24483,0,0,0,2.358.5c.058.001.116.001.174.001a1.83915,1.83915,0,0,0,1.158-.284,1.76426,1.76426,0,0,0,.531-.908,3.18013,3.18013,0,0,0,.145-1.42,1.65786,1.65786,0,0,0-.747-1.177,4.37838,4.37838,0,0,1-.461-.254.45989.45989,0,0,1-.202-.455.37.37,0,0,0,.072.004h.052c.187,0,.555-.006.911-.01.35-.005.689-.011.825-.011h.039a4.1493,4.1493,0,0,1,2.02.552c.061.032.123.067.186.102.385.221.769.443,1.151.67.076.663.187,1.324.329,1.977a1.54763,1.54763,0,0,0,.271.675.70622.70622,0,0,0,.117.108c-.039.131-.08.263-.123.395a8.614,8.614,0,0,1-1.534,2.309,3.71678,3.71678,0,0,0-.694,1.221,1.2642,1.2642,0,0,0,.321,1.297c.098.081.221.153.252.277a.56208.56208,0,0,1-.088.346,1.33082,1.33082,0,0,0,.038,1.16,2.28211,2.28211,0,0,0,.495.585,4.17991,4.17991,0,0,1,.582.593c.533.737.148,1.231.005,1.96-.103.539.39,1.235.09,1.739-.212.354-.694.377-1.114.416-.022.003-.045.005-.068.007a18.13152,18.13152,0,0,0-2.662.808,6.52328,6.52328,0,0,1-1.663.197" fill="none" stroke="#000" stroke-miterlimit="10"/><path d="M299.1582,243.21759h-.014c-.346-.008-.585-.337-.784-.62a8.4559,8.4559,0,0,0-1.105-1.277.613.613,0,0,0-.373-.207h-.01a.64032.64032,0,0,0-.344.144c-.063.042-.126.085-.189.127-.203.137-.405.274-.609.411l2.456-2.191a3.34684,3.34684,0,0,1,.636-.06,6.60929,6.60929,0,0,1,2.987.939,1.67191,1.67191,0,0,1,.788.676.64766.64766,0,0,1-.19.787.39137.39137,0,0,1-.152.056.43584.43584,0,0,1-.072.005,1.52066,1.52066,0,0,1-.343-.063,1.77819,1.77819,0,0,0-.392-.044,1.87015,1.87015,0,0,0-1.358.585c-.277.3-.526.732-.932.732" fill="none" stroke="#000" stroke-miterlimit="10"/><path d="M286.11789,249.894a6.34867,6.34867,0,0,1-.654-.232c.153-.252.305-.505.453-.759l.021.004a2.1569,2.1569,0,0,0,.18.987m4.544,3.96a.43771.43771,0,0,1-.127-.018c-.409-.118-.43-.684-.364-1.105.093-.603.188-1.203.282-1.805-.133-.028-.265-.056-.397-.084-.117-.025-.232-.05-.348-.076a1.36326,1.36326,0,0,1,.053-.891c.022-.046.048-.091.072-.137l.012.001.309.033a2.64964,2.64964,0,0,0,.269.016.70923.70923,0,0,0,.483-.146.96046.96046,0,0,0,.244-.542q.12452-.5745.249-1.15c.072-.337.185-.724.505-.851a.513.513,0,0,1,.191-.036.78515.78515,0,0,1,.665.462,1.90912,1.90912,0,0,1,.077,1.038,13.94058,13.94058,0,0,1-1.023,3.776q-.186.435-.403.857c-.15.291-.395.616-.69.654a.38763.38763,0,0,1-.059.004" fill="none" stroke="#000" stroke-miterlimit="10"/><path d="M285.52039,254.1976q.41249-1.00945.826-2.019a2.58777,2.58777,0,0,0,.211-.694,1.66246,1.66246,0,0,0,.007-.173,3.57284,3.57284,0,0,0-.392-1.282c-.019-.044-.037-.09-.054-.136a2.15378,2.15378,0,0,1-.181-.986c.002-.018.004-.035.007-.052.122-.21.243-.421.363-.631a1.129,1.129,0,0,1,.674-.221.95675.95675,0,0,1,.669.253c.11.105.213.243.362.251l.223-.047a.78824.78824,0,0,1,.214-.029,1.84732,1.84732,0,0,1,.893.33c.3.177.64.451.566.792a.6346.6346,0,0,1-.07.176l-.005.009c-.024.045-.051.09-.072.137a1.36,1.36,0,0,0-.053.89,3.71962,3.71962,0,0,0,.103.365.95055.95055,0,0,1,.069.319,1.26384,1.26384,0,0,1-.165.458,1.64022,1.64022,0,0,0-.125.927l-4.07,1.363" fill="none" stroke="#000" stroke-miterlimit="10"/><path d="M314.26578,253.19531a1.1381,1.1381,0,0,1-.847-.412,2.66079,2.66079,0,0,1-.456-1.409,1.19141,1.19141,0,0,1,.028-.567,1.96841,1.96841,0,0,1,.412-.516,1.7052,1.7052,0,0,0,.167-1.969c.009.74-.09,1.651-.775,1.934a2.03814,2.03814,0,0,1-.632.106c-.168.012-.335.026-.503.043a7.30418,7.30418,0,0,0-.044-.775c-.006-.051-.015-.104-.026-.156l.05-.012a3.35721,3.35721,0,0,1,.748-.084c.097,0,.196.004.293.012a3.659,3.659,0,0,1,.089-2.453,1.43064,1.43064,0,0,1,.946-.916.92785.92785,0,0,1,.165-.015,1.73553,1.73553,0,0,1,1.2.711,3.82154,3.82154,0,0,1,.716,2.777,8.86415,8.86415,0,0,1-.716,3.022,1.34125,1.34125,0,0,1-.335.514.7336.7336,0,0,1-.48.165m-7.442,1.21a.58648.58648,0,0,1-.339-.117.70837.70837,0,0,1-.117-.108,1.55351,1.55351,0,0,1-.271-.675c-.142-.653-.253-1.314-.329-1.977a20.427,20.427,0,0,1-.11-3.435c.949.384,1.282,1.534,1.496,2.535a5.44244,5.44244,0,0,0,.967-.254c.021-.007.042-.015.062-.023.047.124.093.24.132.343a1.32879,1.32879,0,0,1,.086.467c-.063.023-.126.047-.188.07-.033.013-.066.026-.098.039h-.026a.50006.50006,0,0,0-.465.202q-.25648.11252-.508.235a9.67738,9.67738,0,0,1-.094,2.649.41154.41154,0,0,1-.158.047c-.013.001-.027.002-.04.002" fill="none" stroke="#000" stroke-miterlimit="10"/><path d="M308.55139,253.2782a1.10484,1.10484,0,0,0-.527-.969c-.24-.142-.531-.557-.413-.811a.14707.14707,0,0,1,.013-.025.49581.49581,0,0,1,.464-.203h.026c.036.001.074.003.11.007.059.006.117.014.172.025a1.30677,1.30677,0,0,0,.004-.14,1.33235,1.33235,0,0,0-.085-.468c-.04-.102-.086-.219-.132-.343-.014-.036-.028-.073-.041-.111-.246-.685-.426-1.543.563-1.691a1.75166,1.75166,0,0,0,.37-.056,2.97544,2.97544,0,0,0,.279-.158.66522.66522,0,0,1,.297-.07.67951.67951,0,0,1,.406.134l.228.166a.38476.38476,0,0,0,.142.023c.071,0,.145-.011.216-.014l.043-.001a.81839.81839,0,0,1,.728.432,1.57957,1.57957,0,0,1,.176.469,1.4418,1.4418,0,0,1,.025.156,7.336,7.336,0,0,1,.045.776,11.1831,11.1831,0,0,0,.05,1.264,4.0178,4.0178,0,0,0,.11.554l-3.238,1.044-.031.01" fill="none" stroke="#000" stroke-miterlimit="10"/><path d="M323.3735,289.60352a2.67949,2.67949,0,0,0-2.332-1.155,2.97515,2.97515,0,0,0-2.216.987,3.06142,3.06142,0,0,1,.515-3.052,5.698,5.698,0,0,1,2.613-1.45q6.72149-2.295,13.397-4.731-.40648.87446-.772,1.762c-.129.318-.752,1.923-1.536,3.849q-4.8555,1.839-9.669,3.79" fill="none" stroke="#000" stroke-miterlimit="10"/><path d="M339.23611,272.79791c-.794-1.876-1.23-4.091-2.387-5.795a1.309,1.309,0,0,0,.905.32,3.861,3.861,0,0,0,1.188-.239c1.246-.416,2.484-.862,3.719-1.317a64.28014,64.28014,0,0,1-3.425,7.031" fill="none" stroke="#000" stroke-miterlimit="10"/><path d="M341.1066,256.16061c-.05-.038-.102-.074-.154-.108l.019-.019a.9543.9543,0,0,1,.135.127m2.579,1.191a5.67756,5.67756,0,0,0-2.61-1.421,15.77314,15.77314,0,0,0,2.495-3.104c.145-.247,1.215-3.133,1.229-3.134a6.59249,6.59249,0,0,0,2.336-.6,36.66627,36.66627,0,0,0-6.827.984q-.003-1.383-.004-2.769a26.06321,26.06321,0,0,1,2.791-.145,15.86432,15.86432,0,0,1,4.498.525,1.46378,1.46378,0,0,1,1.077,1.293,2.14971,2.14971,0,0,1-.391,1.033c-1.466,2.473-3.05,4.895-4.594,7.338" fill="none" stroke="#000" stroke-miterlimit="10"/><path d="M336.62808,259.46042a1.1194,1.1194,0,0,1-.288-.035c-.787-.202-.96-1.173-.933-2.025.22-.258.519-.449.719-.725.733-1.013-.193-2.37-1.069-3.26q-.25351-.261-.508-.519a.25.25,0,0,0,.094-.296c-.038-.111-.142-.184-.209-.279l1.784-3.769a4.26374,4.26374,0,0,0,3.012-1.95,7.637,7.637,0,0,1,.245,1.093q.477,3.108.671,6.252a.85069.85069,0,0,1-.148.664.72461.72461,0,0,1-.523.158c-.027,0-.054,0-.081-.001a6.53871,6.53871,0,0,1-1.63-.264,25.8357,25.8357,0,0,1,2.668,1.241c.077.04.154.082.229.127-.05-.005-.101-.008-.152-.011a.90708.90708,0,0,1,.191.032c.085.05.17.103.253.159.052.034.103.071.153.108a1.48148,1.48148,0,0,1,.052,1.733,3.69668,3.69668,0,0,1-2.292,1.121q-.81153.17848-1.62.356a2.90057,2.90057,0,0,1-.618.09m-2.881,2.511q-1.5915-.741-3.239-1.351l1.377-2.909c.164,0,.325.001.486.001.409,0,.805-.004,1.182-.01a11.47773,11.47773,0,0,0,.194,4.269" fill="none" stroke="#000" stroke-miterlimit="10"/><path d="M334.64059,263.47263v0m3.114,3.85a1.31166,1.31166,0,0,1-.906-.32,24.75438,24.75438,0,0,1-1.531-2.097,8.00714,8.00714,0,0,1-1.57-2.934,11.44217,11.44217,0,0,1-.194-4.27c.011-.124.025-.251.039-.379a.5375.5375,0,0,1,.121-.337.52134.52134,0,0,1,.369-.109h.047a4.01457,4.01457,0,0,1,1.295.214c-.008.101-.015.204-.018.31-.026.852.147,1.822.933,2.025a1.12693,1.12693,0,0,0,.289.035,2.89037,2.89037,0,0,0,.617-.09q.8085-.17848,1.62-.356a3.68994,3.68994,0,0,0,2.292-1.122,1.47992,1.47992,0,0,0-.051-1.732.95409.95409,0,0,0-.135-.127.836.836,0,0,0-.272-.14.84844.84844,0,0,0-.191-.032c.052.003.103.005.153.01a3.72419,3.72419,0,0,1,.414.059,5.67762,5.67762,0,0,1,2.61,1.421,16.44635,16.44635,0,0,1,1.478,1.521c-.644,1.58-1.235,3.171-1.745,4.777q-.34049,1.07249-.758,2.118c-1.234.454-2.473.9-3.719,1.316a3.85543,3.85543,0,0,1-1.187.239" fill="none" stroke="#000" stroke-miterlimit="10"/><path d="M334.6409,263.62521v0Z" fill="none" stroke="#000" stroke-miterlimit="10"/><path d="M321.18747,290.07452a1.13129,1.13129,0,0,0-.547.147c-1.12.643-.654,2.193.23,2.193a1.1343,1.1343,0,0,0,.784-.386,1.33527,1.33527,0,0,0,.257-1.49.894.894,0,0,0-.194-.273.76451.76451,0,0,0-.53-.191m1.809,3.566-4.016-.051a2.98415,2.98415,0,0,1,2.061-5.141,2.67942,2.67942,0,0,1,2.332,1.155,3.17221,3.17221,0,0,1,.511,1.826,3.22812,3.22812,0,0,1-.888,2.211" fill="none" stroke="#000" stroke-miterlimit="10"/><path d="M320.87021,292.41489c-.884,0-1.35-1.55-.229-2.193a1.11506,1.11506,0,0,1,.546-.148.7687.7687,0,0,1,.531.191.91266.91266,0,0,1,.193.274,1.33627,1.33627,0,0,1-.256,1.489,1.13562,1.13562,0,0,1-.785.387" fill="none" stroke="#000" stroke-miterlimit="10"/><path d="M336.21771,248.55194l1.892-3.999c.802.54,1.434,1.267,1.142,1.996l-.021.053a4.2626,4.2626,0,0,1-3.013,1.95m-2.125,4.492.342-.723c.067.096.171.169.208.28a.24828.24828,0,0,1-.093.295.86153.86153,0,0,1-.457.148" fill="none" stroke="#000" stroke-miterlimit="10"/><path d="M375.15591,379.7135h-68.406v-2.256c0-.026,7.32.075,14.622.175,6.727.092,13.437.184,14.401.178q4.845-.03,9.691-.144c3.254-.075,6.582-.428,9.833-.309,5.214.193,10.478.1,15.71.1h4.149v2.256" fill="none" stroke="#000" stroke-miterlimit="10"/><path d="M310.31741,399.0963h1.188v-19.733c0-.006-1.075-.005-1.188-.004.086,1.109-.265,2.227-.243,3.361.105,5.462.243,10.908.243,16.376" fill="none" stroke="#000" stroke-miterlimit="10"/><path d="M312.27631,399.0963h.881c.639,0-.251-19.705,0-19.737h-.881v19.737" fill="none" stroke="#000" stroke-miterlimit="10"/><path d="M367.52289,399.0963h-1.189v-19.737h1.189c-1.087,0,0,18.102,0,19.737" fill="none" stroke="#000" stroke-miterlimit="10"/><path d="M365.5629,399.0963h-.882c.669,0-.994-19.576,0-19.737h.882Z" fill="none" stroke="#000" stroke-miterlimit="10"/><path d="M304.665,366.685c.448.041.82-.31,1.162-.602a6.21368,6.21368,0,0,1,1.874-1.098c-.274.47-.546.937-.82,1.407a8.1145,8.1145,0,0,1,2.594-.195q-.54753.171-1.095.341a4.8144,4.8144,0,0,0,1.106.055c-.235.097-.471.192-.705.288.038.141.228.151.375.16.145.009.332.127.263.256-.235.039-.467.077-.699.115a1.1106,1.1106,0,0,0,.401.099c.135.033.276.165.218.291-.042.095-.163.116-.266.125q-1.881.17251-3.771.232l-.637-1.474" fill="none" stroke="#000" stroke-miterlimit="10"/><path d="M300.60629,360.5502q.5235-.633,1.049-1.265a1.25486,1.25486,0,0,0,.24-.372c.169-.501-.336-1.043-.177-1.546.091-.287.37-.467.548-.71.44-.606.181-1.472.425-2.18.351-1.02,1.589-1.396,2.662-1.506a1.5374,1.5374,0,0,1,1.229.245c.313.298.189.983-.242.976a2.90058,2.90058,0,0,1,1.571-.254c.171.02.379.104.377.275l-.101.208a2.3723,2.3723,0,0,1-1.015.702,1.46114,1.46114,0,0,1,.872.063q-.699.50252-1.399,1.002c.266-.114.436.298.411.586a4.22541,4.22541,0,0,1-.57,1.783,1.40285,1.40285,0,0,1,.708,1.033c-.476.047-.95.095-1.426.143a.78438.78438,0,0,1-.198,1.173,1.704,1.704,0,0,1-1.332.106,6.87824,6.87824,0,0,0-1.336-.315.60988.60988,0,0,1-.451.849l-1.845-.996" fill="none" stroke="#000" stroke-miterlimit="10"/><path d="M304.8205,385.47321c-.148-.668-.283-1.338-.459-2.001a29.71011,29.71011,0,0,0-1.252-3.712,1.10281,1.10281,0,0,0-.294-.467,1.07847,1.07847,0,0,0-.502-.174,10.48075,10.48075,0,0,0-2.04-.12,2.46985,2.46985,0,0,0-1.299.323,1.88454,1.88454,0,0,0-.572,2.142,4.92607,4.92607,0,0,0,1.392,1.904,11.69382,11.69382,0,0,0,1.635,1.355c1.231.809.493.974-.453,1.408a9.10022,9.10022,0,0,0-2.294,1.518,9.26462,9.26462,0,0,0-1.75,2.124c-.143.238-.523,1.424-.787,2.039.577.209,1.116.524,1.679.679a.869.869,0,0,1,.438-.489c2.089-1.285,5-2.904,6.506-4.882.472-.619.224-.865.052-1.647" fill="none" stroke="#000" stroke-miterlimit="10"/><path d="M299.2941,392.94189c-.538-.433-1.073-.94-.853-1.081a2.3034,2.3034,0,0,1-.903.407.78123.78123,0,0,1-.834-.405,2.50779,2.50779,0,0,1-.072-.615c-.026-.206-.158-.434-.365-.437-.186-.003-.321.173-.412.336-.535.96-.904,2.002-1.435,2.984a1.09323,1.09323,0,0,0-.176.957.92813.92813,0,0,0,.383.364,3.45189,3.45189,0,0,0,2.115.473,2.13447,2.13447,0,0,1,.804-.012,1.97351,1.97351,0,0,1,.654.422,4.69908,4.69908,0,0,0,3.267,1.013c.528-.04,1.17-.31,1.173-.841a1.11815,1.11815,0,0,0-.222-.588,7.55016,7.55016,0,0,0-2.217-2.302c-.083-.054-.497-.343-.907-.675" fill="none" stroke="#000" stroke-miterlimit="10"/><path d="M304.2092,381.4864c.143.281-1.905,1.461-2.142,1.575a4.1185,4.1185,0,0,1-1.955.404c-1.398.009-1.916.046-2.752-1.125a15.05408,15.05408,0,0,1-1.735-3.159c.067.595.309,1.16.392,1.754.075.543-.066,1.214-.58,1.404-.577.217-1.164-.313-1.778-.345.049-.222.097-.444.146-.666a15.14267,15.14267,0,0,0,.389-3.683,3.211,3.211,0,0,1,.659-2.506,4.31073,4.31073,0,0,1,2.656-.946c.614-.074,1.229-.147,1.845-.198.624-.05.991.253,1.594.303a3.593,3.593,0,0,1-.345,1.395,11.65354,11.65354,0,0,0-3.096.87c1.282-.03,3.22-.187,4.115.92a22.96472,22.96472,0,0,1,2.587,4.003" fill="none" stroke="#000" stroke-miterlimit="10"/><path d="M313.23709,368.0887a2.10612,2.10612,0,0,0-.665,1.291,5.18242,5.18242,0,0,0,.924,2.94,1.21241,1.21241,0,0,0-.405,1.435,9.89381,9.89381,0,0,1-6.825-4.526.888.888,0,0,1-.178-.531c.024-.231.224-.445.159-.668-.068-.231-.36-.291-.55-.44-.679-.534.215-1.787-.338-2.45-.113-.136-.278-.227-.381-.371a1.475,1.475,0,0,1-.151-.813,3.61841,3.61841,0,0,0-1.636-2.674,9.43862,9.43862,0,0,0-2.981-1.239,1.12588,1.12588,0,0,0-1.456.473c-1.983,2.284-4.037,4.705-4.665,7.665-.435,2.055-.139,4.209-.533,6.273a3.48589,3.48589,0,0,0-.084,1.754,1.10362,1.10362,0,0,0,.761.688c2.27-.504,4.454-1.744,6.74-1.405a2.80433,2.80433,0,0,1,.307-1.27c.104-.185.26-.336.377-.513a3.66384,3.66384,0,0,0,.391-1.39,6.7973,6.7973,0,0,1,1.056-2.591,8.83943,8.83943,0,0,0,.683,2.378,2.19643,2.19643,0,0,0,.792-.758c-.055.393-.053.897.306,1.065a3.29891,3.29891,0,0,0,.37.098,1.41685,1.41685,0,0,1,.492.357,8.64725,8.64725,0,0,0,7.777,2.186c-.022.434-.044.867-.066,1.302.167.05.334.099.501.15a2.75283,2.75283,0,0,0,.151-1.193.81116.81116,0,0,0,.879-.174.48769.48769,0,0,0-.352-.35,6.83206,6.83206,0,0,0,.143-2.036c1.424-1.017,1.948-4.065.072-4.97-.88-.425-1.473.042-1.691.886a4.46668,4.46668,0,0,0,.685,3.303c.102.186.229.391.436.433a6.16547,6.16547,0,0,0-.707-1.914,1.81333,1.81333,0,0,1,.113-1.933l-.451-.468" fill="none" stroke="#000" stroke-miterlimit="10"/><path d="M304.36569,372.0657a8.897,8.897,0,0,1,1.952-2.87,19.73408,19.73408,0,0,0,5.204,4.012c.266.142.599.276.851.112a1.1845,1.1845,0,0,0,.304-.377,1.62993,1.62993,0,0,1,2.145-.444c.252.161.394.629.101.683a.31356.31356,0,0,1-.05.574.62511.62511,0,0,0,.269.358.6543.6543,0,0,1-.199.319,1.47191,1.47191,0,0,1,.171,1.12c-2.451.183-5.024.345-7.252-.687a14.46416,14.46416,0,0,1-2.285-1.425,3.47328,3.47328,0,0,1-.904-.82,1.58706,1.58706,0,0,1-.174-1.487l-.133.932" fill="none" stroke="#000" stroke-miterlimit="10"/><path d="M292.20941,385.869q1.04549-2.16149,2.092-4.324a1.263,1.263,0,0,0,1.564-.064q.945,1.1085,1.89,2.217-1.1835,1.287-2.367,2.574a6.25271,6.25271,0,0,1-.652.64,5.92155,5.92155,0,0,1-1.019.622,53.17517,53.17517,0,0,0-8.151,4.759,3.16758,3.16758,0,0,1-1.32.736.99781.99781,0,0,1-1.183-.691,12.53945,12.53945,0,0,1,2.647-4.049,6.28821,6.28821,0,0,1,1.256-1.035,8.38935,8.38935,0,0,1,2.785-.866c1.016-.189,2.206-.332,2.955.38a1.3616,1.3616,0,0,1-.437-1.473l-.06.574" fill="none" stroke="#000" stroke-miterlimit="10"/><path d="M286.41721,395.8232l.078.029a1.25918,1.25918,0,0,0-.713-.742,3.7248,3.7248,0,0,0-1.03-.245,7.26136,7.26136,0,0,1-.166-1.977c-.197-.001-.395-.001-.594-.002l-.138-.028c-.108-.072-.049-.235-.012-.359a1.357,1.357,0,0,0-.196-.94c-.141-.291-.329-.619-.648-.663-.325-.046-.598.226-.813.475-.266.308-.533.617-.799.924a.8.8,0,0,0-.187.296.75647.75647,0,0,0-.001.307,19.04223,19.04223,0,0,0,.681,3.133c.042.137.037.119.067.101.022-.013.064-.026.158.025a2.03865,2.03865,0,0,0,.724.187,13.213,13.213,0,0,0,1.603.093l1.986-.614" fill="none" stroke="#000" stroke-miterlimit="10"/><path d="M302.97672,357.6767c.14.451.645.66,1.034.831-.926,2.399-4.382.515-3.43-1.618.252-.564.864-.96.939-1.574.03-.23-.025-.462-.015-.693a2.2121,2.2121,0,0,1,.733-1.341,6.65335,6.65335,0,0,1,2.647-1.772,4.15053,4.15053,0,0,1,3.132.141c.152.076.321.217.271.379l-.143.173c-.402.321-.801.642-1.201.963.403-.066.806-.134,1.21-.201a.87714.87714,0,0,1,.498.014.302.302,0,0,1,.166.412c-.253.144-.505.288-.758.431a1.16953,1.16953,0,0,1,1.479.378q-.55051.354-1.104.712a.45977.45977,0,0,1,.074.619,1.09939,1.09939,0,0,1-.566.378c-.918.338-1.998.357-2.727,1.01-.212.189-.5.442-.733.28l-.17-.207a.76147.76147,0,0,0-1.336.685" fill="none" stroke="#000" stroke-miterlimit="10"/><path d="M387.0553,378.84041a24.349,24.349,0,0,0,3.292,4.64,5.8743,5.8743,0,0,0,3.817,2.425q4.3785,1.272,8.756,2.546a.74244.74244,0,0,0,.194-1.016,2.15246,2.15246,0,0,0-.89-.719q-3.384-1.839-6.766-3.679c-.746-.405-1.813-.754-2.323-.074.559-.729.147-1.771-.279-2.584q-1.63353-3.12748-3.268-6.255l-2.533,4.716" fill="none" stroke="#000" stroke-miterlimit="10"/><path d="M382.6058,380.3199a22.04566,22.04566,0,0,0,4.581,14.008c.318.411.832.852,1.292.609.416-.22.406-.811.336-1.277q-.201-1.33352-.4-2.669a7.6264,7.6264,0,0,0-.786-2.772,2.59206,2.59206,0,0,0-2.363-1.393c.533.062.709-.696.67-1.232a12.84848,12.84848,0,0,0-.985-4.841,2.9712,2.9712,0,0,1-2.992-.185" fill="none" stroke="#000" stroke-miterlimit="10"/><path d="M382.51431,395.94231l.028.149.184-.038q1.27051-.6405,2.539-1.279a1.39357,1.39357,0,0,1,1.238-.186l.169.06c.154-.021.119-.254.042-.389q-.87-1.518-1.74-3.037a10.47462,10.47462,0,0,0,3.653-.865c.055.781.119,1.562.167,2.343.03.492-.207,1.292-.04,1.726a2.47988,2.47988,0,0,0-.977.444c.572.12.976-.263,1.422.228.325.357.352.791-.164,1.021a1.99449,1.99449,0,0,1-.741.124q-1.491.057-2.984.114a13.935,13.935,0,0,0-2.263.211c-.333.068-.812.073-.871-.262.098-.048.196-.097.295-.146-.035-.131-.068-.262-.102-.393" fill="none" stroke="#000" stroke-miterlimit="10"/><path d="M403.4899,386.77161a2.9502,2.9502,0,0,1-.132.961c.135-.7-.608-1.225-1.245-1.547q-1.5135-.765-3.027-1.53c.141.635.209,2.763-.949,2.652a14.59072,14.59072,0,0,0,4.753,1.47,1.72962,1.72962,0,0,0-.486,2.005,9.32112,9.32112,0,0,1,.658,2.119c.014.301.034.703.328.766a.49006.49006,0,0,0,.271-.039,1.85178,1.85178,0,0,0,.994-1.368c.131-.571.132-1.168.29-1.734.271-.974,1.002-1.936.668-2.89-.167-.48-2.139-1.457-2.123-.865" fill="none" stroke="#000" stroke-miterlimit="10"/><path d="M365.87491,368.135l.193-.057a4.2451,4.2451,0,0,0-1.755-1.601,1.98053,1.98053,0,0,0-2.222.38,1.94656,1.94656,0,0,0,.329,2.607,3.59156,3.59156,0,0,0,2.737.722,3.27008,3.27008,0,0,1,.752-.024,1.78819,1.78819,0,0,0,.848.079.70272.70272,0,0,0,.353-.853,1.69871,1.69871,0,0,0-.61-.793,3.395,3.395,0,0,1-.729-.701" fill="none" stroke="#000" stroke-miterlimit="10"/><path d="M379.3367,362.1853a9.9882,9.9882,0,0,1,1.052,2.162,1.00127,1.00127,0,0,1,.072.588,1.05586,1.05586,0,0,1-.323.445,16.53572,16.53572,0,0,0-3.243,4.52,1.77894,1.77894,0,0,1-.665.868,1.67211,1.67211,0,0,1-.867.11q-2.889-.1335-5.781-.058a1.97144,1.97144,0,0,0-1.398.406c-.237.24-.415.632-.751.62-.054-.171-.108-.344-.162-.516-.139.076-.278.153-.418.228a1.9529,1.9529,0,0,1-.246-.743c-.175.031-.349.061-.523.094-.047-.175-.095-.35-.141-.524a.62878.62878,0,0,1-.692-.062c.281-.335.469-.735.728-1.088a1.565,1.565,0,0,1,1.054-.705.77557.77557,0,0,1,.864.75c.042-.384,3.843-.742,4.279-.78a7.01675,7.01675,0,0,1,2.261-.097,3.58038,3.58038,0,0,1,1.282,1.052c-.691-2.746.514-5.436,1.883-7.779.46-.786,1.503-.061,2.006.698" fill="none" stroke="#000" stroke-miterlimit="10"/><path d="M378.0589,364.1974a11.70592,11.70592,0,0,0-4.491-.919,1.37239,1.37239,0,0,1-.763-.144,2.06792,2.06792,0,0,1-.411-.466,2.27525,2.27525,0,0,0-1.852-.721,6.683,6.683,0,0,0-1.99.491.7587.7587,0,0,0-.267.136.74262.74262,0,0,0-.191.382,8.42734,8.42734,0,0,0-.262,1.519,1.31856,1.31856,0,0,0,.742-.85c-.017.337-.037.672-.056,1.009a1.08163,1.08163,0,0,0,.493-.975c.025.315.05.628.076.941a2.1949,2.1949,0,0,0,.279-.962,3.04027,3.04027,0,0,1,1.149-.309q-.3165.9315-.63,1.863a3.5159,3.5159,0,0,0,1.249-1.588,21.38533,21.38533,0,0,0,6.095,2.565" fill="none" stroke="#000" stroke-miterlimit="10"/><path d="M375.8627,352.675c-1.115-.14-2.47-.126-3.095.928a14.71446,14.71446,0,0,0-.489,3.301c.241-.051.483-.101.724-.153l.225.012.098.213q.153.912.303,1.825c.301-.104.6-.208.9-.312a1.01459,1.01459,0,0,1,.208.477c.152-.054.306-.108.459-.162a1.09282,1.09282,0,0,0,.007.568.37486.37486,0,0,0,.454.245l.205-.143a.7398.7398,0,0,1,.749.084,2.086,2.086,0,0,0,.705.356.96371.96371,0,0,0,.885-.451,2.84528,2.84528,0,0,0,.362-.975.38091.38091,0,0,0-.007-.284c-.058-.095-.182-.121-.278-.176-.329-.185-.305-.658-.237-1.03.074-.406.149-.814.224-1.22a3.08325,3.08325,0,0,0-.045-1.848,2.83505,2.83505,0,0,0-2.357-1.255" fill="none" stroke="#000" stroke-miterlimit="10"/><path d="M392.26181,377.4277a10.61917,10.61917,0,0,1-5.995,3.815,12.97133,12.97133,0,0,1-1.607-4.323q-1.143-.1095-2.288-.22.654.402,1.309.804a.67459.67459,0,0,1,.421.658c.049.492.467,2.146.152,2.501-.328.369-1.908.56-2.424.796a17.5401,17.5401,0,0,1-.274-3.789,17.9951,17.9951,0,0,0-.293-4.713l.013-.239.228-.119c1.176-.269,2.039-1.067,3.201-1.275.879-.158,1.743-.378,2.616-.554.501-.102.648-.206,1.045.111a9.07366,9.07366,0,0,1,1.314,2.208c.256.43,2.759,4.109,2.582,4.339" fill="none" stroke="#000" stroke-miterlimit="10"/><path d="M376.37549,363.462a4.289,4.289,0,0,1,.948-2.54,1.33894,1.33894,0,0,1-.102-1.378,3.96353,3.96353,0,0,1,.894-1.14,6.2624,6.2624,0,0,1,1.567-1.251,2.12106,2.12106,0,0,1,1.935-.06,3.059,3.059,0,0,1,.811.754c2.951,3.538,5.448,7.748,5.612,12.353a1.47474,1.47474,0,0,1-.134.812,1.49236,1.49236,0,0,1-.677.52,16.878,16.878,0,0,1-6.152,1.65,10.35078,10.35078,0,0,0-1.303-6.099.82.82,0,0,1-.103-.249c-.047-.262.154-.494.325-.697a4.69785,4.69785,0,0,0,.752-1.256c-.315.245-1.316,1.304-1.718,1.211-.373-.084-.474-.868-.738-1.149" fill="none" stroke="#000" stroke-miterlimit="10"/><path d="M378.2164,352.63361a1.251,1.251,0,0,0-.44-1.402,2.61875,2.61875,0,0,0-1.479-.48c-.902-.061-2.704-.143-3.412.474-.62.542-.726,1.455-1.133,2.171-.489.858-1.437,1.477-1.621,2.447a1.27,1.27,0,0,0,1.184-.388c.279.433-.577.906-.422,1.395.126.397.707.317,1.089.156q-.168.3495-.339.7c.339.372.978.141,1.32-.226.344-.368.585-.858,1.036-1.082a.51051.51051,0,0,0,.749.567c.244-.196.421-.649.699-.508.015.137.03.272.046.409.155.218.484-.013.64-.228.156-.218.507-.429.638-.196-.207.362-.415.726-.622,1.089a.86929.86929,0,0,0,.748-.237,1.79485,1.79485,0,0,0,.184,1.177c.233.33.829.41,1.008.047.158.302.24.64.419.93a.89262.89262,0,0,0,.831.485c.549-.082.693-.812.613-1.36-.078-.548-.22-1.193.166-1.591.188-.195.469-.283.642-.492.326-.396.106-1-.215-1.401a3.25371,3.25371,0,0,1-.845-1.261c-.064-.32.017-.66-.073-.974a1.59937,1.59937,0,0,0-1.327-.939,4.25812,4.25812,0,0,1-1.636-.457" fill="none" stroke="#000" stroke-miterlimit="10"/><path d="M359.54141,371.2742a.626.626,0,1,0-.626.625.62694.62694,0,0,0,.626-.625" fill="none" stroke="#000" stroke-miterlimit="10"/><path d="M423.02631,399.0963h-145.046v-3.508c0,.064,6.317.024,13.625-.015,9.516-.051,20.711-.103,21.817.075a44.03243,44.03243,0,0,0,11.148.519c8.574-.802,17.17-.579,25.789-.579h72.667v3.508" fill="none" stroke="#000" stroke-miterlimit="10"/><path d="M301.51291,360.44389c-.212-.076-.427-.146-.643-.212q.34952-.4215.701-.844a2.10575,2.10575,0,0,0,.465.179q-.26248.438-.523.877" fill="none" stroke="#000" stroke-miterlimit="10"/><path d="M293.6377,373.96361c.27-1.913.051-3.89.452-5.783.628-2.959,2.681-5.381,4.664-7.665a1.51737,1.51737,0,0,1,.713-.544.85584.85584,0,0,1,.207-.025,2.06974,2.06974,0,0,1,.537.096c.219.061.44.123.659.19.216.066.432.135.643.211-2.662,4.484-5.231,9.024-7.875,13.52" fill="none" stroke="#000" stroke-miterlimit="10"/><path d="M303.0614,357.8618a.82063.82063,0,0,1-.085-.185.78654.78654,0,0,1,.378-.906.7376.7376,0,0,1,.335-.077c.028,0,.055.001.082.003-.237.388-.475.776-.71,1.165" fill="none" stroke="#000" stroke-miterlimit="10"/><path d="M281.33279,393.7757c-.052-.291-.098-.584-.135-.877a.77358.77358,0,0,1,.001-.307.82472.82472,0,0,1,.187-.297c.267-.307.534-.616.799-.924a1.10838,1.10838,0,0,1,.741-.479.62685.62685,0,0,1,.073.005.55625.55625,0,0,1,.127.035q-.897,1.422-1.793,2.844" fill="none" stroke="#000" stroke-miterlimit="10"/><path d="M302.03571,359.5668a2.12611,2.12611,0,0,1-.465-.179,1.92773,1.92773,0,0,1-.99-2.499c.252-.563.864-.959.939-1.573.03-.23-.024-.462-.015-.693a2.21691,2.21691,0,0,1,.733-1.341,6.65322,6.65322,0,0,1,2.647-1.772,4.58376,4.58376,0,0,1,1.445-.239,4.00577,4.00577,0,0,1,.826.084q-1.737,2.643-3.384,5.342c-.027-.002-.055-.003-.082-.003a.7349.7349,0,0,0-.335.077.76831.76831,0,0,0-.293,1.091q-.51746.8505-1.026,1.705" fill="none" stroke="#000" stroke-miterlimit="10"/><path d="M277.97989,399.0963h0v-3.508c0,.021.745.031,2.019.033-.917,1.181-2.019,2.653-2.019,3.475" fill="none" stroke="#000" stroke-miterlimit="10"/><polygon points="438.991 399.096 393.086 399.096 403.908 399.096 423.026 399.096 423.026 396.321 438.991 396.321 438.991 399.096" fill="none" stroke="#000" stroke-miterlimit="10"/><path d="M403.4574,393.6743a.315.315,0,0,1-.068-.007c-.293-.063-.314-.465-.328-.766a9.3088,9.3088,0,0,0-.657-2.118,1.72749,1.72749,0,0,1,.485-2.005,14.55641,14.55641,0,0,1-2.876-.675q.711-1.12949,1.424-2.259c.224.114.45.227.675.342.637.322,1.38.846,1.246,1.546a2.97612,2.97612,0,0,0,.131-.961c-.003-.131.09-.185.24-.185a3.0744,3.0744,0,0,1,1.884,1.051c.334.954-.398,1.915-.669,2.889-.157.566-.158,1.163-.29,1.734a1.85651,1.85651,0,0,1-.993,1.369.60309.60309,0,0,1-.204.045" fill="none" stroke="#000" stroke-miterlimit="10"/><path d="M423.02631,399.0963h-29.94q1.1055-1.75349,2.211-3.508h27.729v3.508" fill="none" stroke="#000" stroke-miterlimit="10"/><path d="M314.635,379.7135h-1.517c.007-.227.02-.352.039-.354h-.881v.354h-.77v-.35c0-.004-.415-.005-.755-.005-.209,0-.391,0-.434.001.009.118.013.236.014.354H306.75v-2.256c0-.003.082-.004.238-.004.95,0,4.639.047,9.077.106q-.708,1.08149-1.43,2.154" fill="none" stroke="#000" stroke-miterlimit="10"/><path d="M310.1481,386.41631q-.03753-1.84649-.074-3.695c-.02-1.013.259-2.015.257-3.008-.001-.118-.005-.236-.014-.354.043-.001.225-.001.433-.001.341,0,.755.001.755.005v4.999q-.61652.92248-1.222,1.848c-.045.069-.09.137-.135.206" fill="none" stroke="#000" stroke-miterlimit="10"/><path d="M312.27631,383.213v-3.854h.881c-.02.002-.032.127-.039.354-.013.426-.005,1.212.013,2.231q-.42752.6345-.855,1.269" fill="none" stroke="#000" stroke-miterlimit="10"/><path d="M306.2597,368.1212a.32525.32525,0,0,0-.013-.092c-.068-.231-.36-.291-.55-.44a.81157.81157,0,0,1-.266-.728c.184-.302.368-.603.551-.907a6.206,6.206,0,0,1,1.719-.969q-.40947.7035-.82,1.406a8.12394,8.12394,0,0,1,1.896-.224c.233,0,.467.01.698.029-.365.115-.729.229-1.095.342a4.87023,4.87023,0,0,0,.791.065c.104,0,.21-.003.315-.01-.234.097-.471.192-.705.288.038.14.228.151.375.16.146.009.332.127.263.256-.234.038-.467.077-.699.115a1.11119,1.11119,0,0,0,.402.099c.135.033.275.165.217.291-.042.095-.162.116-.266.125q-1.404.129-2.813.194" fill="none" stroke="#000" stroke-miterlimit="10"/><path d="M297.41779,392.27541a.9248.9248,0,0,1-.334-.062c-.023-.01-.048-.021-.072-.032a.62773.62773,0,0,1-.308-.318,2.564,2.564,0,0,1-.072-.616.60431.60431,0,0,0-.144-.329,11.41449,11.41449,0,0,1,.445-1.145,9.26676,9.26676,0,0,1,1.75-2.125,9.12817,9.12817,0,0,1,2.294-1.518c.946-.433,1.684-.598.452-1.407a11.36379,11.36379,0,0,1-1.531-1.256c.07-.001.14-.001.214-.002a4.11605,4.11605,0,0,0,1.955-.404,14.34785,14.34785,0,0,0,1.829-1.166q.255.78148.466,1.577c.176.663.311,1.332.459,2.001.172.781.42,1.027-.052,1.647-1.475,1.936-4.296,3.529-6.374,4.801a.09379.09379,0,0,1,.046-.06,2.2876,2.2876,0,0,1-.903.406.953.953,0,0,1-.12.008" fill="none" stroke="#000" stroke-miterlimit="10"/><path d="M294.81311,395.5564c-.063-.032-.125-.067-.186-.104a.9301.9301,0,0,1-.383-.365,1.09114,1.09114,0,0,1,.176-.956c.531-.983.9-2.024,1.435-2.984.09-.163.224-.337.408-.337h.004a.30351.30351,0,0,1,.22.108.60525.60525,0,0,1,.145.329,2.51589,2.51589,0,0,0,.072.616.62383.62383,0,0,0,.308.318.6558.6558,0,0,0,.072.032.92076.92076,0,0,0,.334.062.96889.96889,0,0,0,.12-.008,2.28733,2.28733,0,0,0,.903-.406.099.099,0,0,0-.047.06c-.055.193.421.636.9,1.02.411.332.824.622.907.676a7.40024,7.40024,0,0,1,1.956,1.91c-2.341.006-4.855.016-7.344.029" fill="none" stroke="#000" stroke-miterlimit="10"/><path d="M299.118,375.995c.178-.178.353-.357.527-.54.175-.015.351-.023.528-.023a5.28912,5.28912,0,0,1,.532.026c-.032.08-.065.158-.102.235a11.73551,11.73551,0,0,0-1.485.302m-4.077,5.79a1.2897,1.2897,0,0,1-.396-.061c.361-.624.729-1.249,1.12-1.85a8.8432,8.8432,0,0,1,.252,1.061,1.91527,1.91527,0,0,1-.027.691l-.125-.146a1.231,1.231,0,0,1-.824.305m4.64,1.683a2.24488,2.24488,0,0,1-2.321-1.127,15.06671,15.06671,0,0,1-1.501-2.61,15.16355,15.16355,0,0,1,1.601-2.067c.376-.398.747-.766,1.111-1.125h.056a3.76242,3.76242,0,0,1,2.995.945,22.85892,22.85892,0,0,1,2.587,4.002c.041.079-.093.231-.313.409a14.18712,14.18712,0,0,1-1.829,1.166,4.11594,4.11594,0,0,1-1.955.404c-.074.001-.145.001-.214.002-.075,0-.147.001-.217.001" fill="none" stroke="#000" stroke-miterlimit="10"/><path d="M303.78668,372.10541a8.88521,8.88521,0,0,1-.561-1.702q1.11749-1.76248,2.205-3.542a.81159.81159,0,0,0,.266.728c.19.149.482.209.55.44a.3242.3242,0,0,1,.013.092c.001.191-.151.377-.171.577a.87772.87772,0,0,0,.177.53l.008.011a8.92226,8.92226,0,0,0-1.721,2.413,2.72513,2.72513,0,0,1,.027-.305c-.044.069-.09.136-.14.2l.059-.414a1.39775,1.39775,0,0,0-.109.475,2.18636,2.18636,0,0,1-.603.497m11.163.512a.47571.47571,0,0,0-.128-.118,1.49856,1.49856,0,0,0-.811-.228,1.752,1.752,0,0,0-.587.103c.023-.018.048-.037.072-.055a5.18772,5.18772,0,0,1-.924-2.94,2.10884,2.10884,0,0,1,.665-1.291l.107.11a.99683.99683,0,0,1,.888-.576,1.44142,1.44142,0,0,1,.621.159c1.798.867,1.391,3.707.097,4.836m-13.976,2.873c-.09-.014-.179-.025-.269-.032a5.27694,5.27694,0,0,0-.532-.026c-.177,0-.353.008-.528.023a14.10258,14.10258,0,0,0,1.591-1.973q.41853-.63752.834-1.278c-.007.039-.014.076-.021.113a3.65522,3.65522,0,0,1-.392,1.39c-.116.177-.273.328-.377.513a2.79814,2.79814,0,0,0-.306,1.27m12.985,1.014c-.166-.05-.334-.099-.501-.15q.018-.348.035-.697c.21-.009.421-.022.629-.035a2.73676,2.73676,0,0,1-.163.882" fill="none" stroke="#000" stroke-miterlimit="10"/><path d="M304.39478,371.86031a1.6342,1.6342,0,0,1-.005-.252,1.37542,1.37542,0,0,1,.109-.475l-.059.414-.045.313m-.029.205.029-.205c.003.035.008.07.014.105-.015.033-.029.067-.043.1m7.945,3.623a10.45779,10.45779,0,0,1-4.449-.823,14.48511,14.48511,0,0,1-2.285-1.424,3.50834,3.50834,0,0,1-.904-.82,1.6687,1.6687,0,0,1-.264-.656c.046-.105.095-.21.144-.313a8.92289,8.92289,0,0,1,1.721-2.413c.014-.015.029-.029.044-.044a19.713,19.713,0,0,0,5.204,4.012,1.31529,1.31529,0,0,0,.583.187.48478.48478,0,0,0,.268-.074,1.20667,1.20667,0,0,0,.304-.377,1.52566,1.52566,0,0,1,.746-.568,1.73389,1.73389,0,0,1,.588-.104,1.49848,1.49848,0,0,1,.811.228.491.491,0,0,1,.128.118c.162.203.211.52-.027.565a.31344.31344,0,0,1-.051.574.632.632,0,0,0,.27.357.66178.66178,0,0,1-.199.32,1.46931,1.46931,0,0,1,.171,1.119c-.329.025-.66.049-.992.07-.208.013-.419.026-.629.036-.393.018-.788.03-1.182.03" fill="none" stroke="#000" stroke-miterlimit="10"/><path d="M292.2099,385.85641c-.003-.026-.004-.052-.005-.079l.017-.028-.012.107m-.001.013.001-.013.001.008-.002.005m-2.368,3.695q1.01248-1.623,2.026-3.246a1.88773,1.88773,0,0,1,.735.358,1.383,1.383,0,0,1-.391-.812l.213-.438q.399-.642.798-1.281c.483-.773.946-1.598,1.423-2.422a1.2606,1.2606,0,0,0,.396.061,1.23439,1.23439,0,0,0,.825-.304c.041.048.082.097.124.146q.882,1.03649,1.766,2.072-1.185,1.28551-2.368,2.573a4.60815,4.60815,0,0,1-1.67,1.262c-1.293.673-2.599,1.329-3.877,2.031" fill="none" stroke="#000" stroke-miterlimit="10"/><path d="M286.12479,395.60271c.035-.066.069-.13.101-.19a1.10093,1.10093,0,0,1,.153.189c-.086,0-.169,0-.254.001" fill="none" stroke="#000" stroke-miterlimit="10"/><path d="M301.8634,399.0963h-18.024c.399,0,1.612-2.239,2.285-3.494.085-.001.169-.001.254-.001,1.624-.009,3.394-.018,5.227-.028,1.054-.006,2.129-.012,3.208-.017,2.488-.013,5.002-.023,7.343-.028.697-.001,1.378-.003,2.039-.003-.035.054-.071.109-.106.163-.217.331-1.816,3.408-2.226,3.408" fill="none" stroke="#000" stroke-miterlimit="10"/><path d="M148.1326,305.535c-.061-1.09-.637-2.576-1.684-2.272.124-.035.222,17.923.207,19.538-.065,6.58-.498,13.228-.745,19.845q-.792,21.21751-.025,42.456c.028.8.505,1.916,1.242,1.602,1.294-16.667,1.205-33.406,1.113-50.122-.056-10.337.462-20.774-.108-31.047" fill="none" stroke="#000" stroke-miterlimit="10"/><path d="M207.40331,305.535c-.061-1.09-.636-2.576-1.684-2.272.125-.035.223,17.923.207,19.538-.064,6.58-.498,13.228-.745,19.845q-.7905,21.21751-.025,42.456c.028.8.505,1.916,1.243,1.602,1.294-16.667,1.204-33.406,1.113-50.122-.057-10.337.461-20.774-.109-31.047" fill="none" stroke="#000" stroke-miterlimit="10"/><path d="M54.1559,372.362a15.694,15.694,0,0,0,2.112-.905c.482-.307.827-.759,1.339-1.074a13.43358,13.43358,0,0,1,2.8-1.427,13.46537,13.46537,0,0,1,2.156-.449c-.203.031.006-4.21-.028-4.659-.338-4.601-2.442-8.597-4.322-12.719a27.50271,27.50271,0,0,1-1.366-3.379,9.76838,9.76838,0,0,1-.24-5.329,13.79285,13.79285,0,0,1,3.53-5.502,19.42449,19.42449,0,0,1,2.647-2.499c7.255-5.377,17.23-4.56,17.493,6.015.028,1.144-.28,2.28-.332,3.443a18.36238,18.36238,0,0,0,1.027,6.932c.358,1.008,1.291,2.589.723,3.676-.636,1.217-3.406,1.337-4.544.978,2.275.723,2.365,4.162,1.03,5.737-1.595,1.885-4.279,2.309-6.612,2.418a10.13363,10.13363,0,0,0,2.288.608,23.98606,23.98606,0,0,0-.239,3.045,13.4049,13.4049,0,0,0-3.66,1.094q2.964-.21,5.94-.16a3.32344,3.32344,0,0,1,3.469,3.157,4.36028,4.36028,0,0,1-.749,2.132,12.44978,12.44978,0,0,1-6.461,5.334,7.35543,7.35543,0,0,1-3.172.453c-3.075-.318-5.438-3.163-8.513-3.486" fill="none" stroke="#000" stroke-miterlimit="10"/><path d="M34.5899,531.1496c-.258,2.725,3.743,3.832,5.771,2.122,2.411-2.032,3.474-5.744,4.74-8.52,3.132-6.874,6.188-13.437,7.718-20.864.347-1.685.6-3.393,1.071-5.047.36-1.264.846-2.488,1.329-3.709,3.918-9.883,4.826-20.706,5.454-31.271a3.78706,3.78706,0,0,1,.532-2.079c1.238-1.66,3.837-1.739,5.68-1.951,3.103-.357,6.202-.749,9.304-1.124a4.23243,4.23243,0,0,1,1.66.019c1.387.391,1.989,2.014,2.201,3.44.756,5.104-1.715,11.223-6.758,12.317q4.05,6.1635,8.098,12.327a70.54638,70.54638,0,0,0,7.943,10.42c-1.255-.522-3.554-2.072-4.911-1.566-.909.341-1.355,1.642-1.793,2.429a30.48779,30.48779,0,0,0-3.1,8.571c-1.285,6.039-1.328,12.271-2.695,18.294a46.12372,46.12372,0,0,0-1.233,6.434c-.166,2.065.669,9.328,4.185,7.975a5.19468,5.19468,0,0,0,2.112-1.939c2.632-3.564,5.152-7.347,6.522-11.597,1.449-4.497,2.703-9.084,4.043-13.645,2.531-8.613,5.087-17.616,3.453-26.443a57.37564,57.37564,0,0,0-2.858-9.348q-6.3585-17.2395-12.72-34.478a2.22611,2.22611,0,0,0-3.006-1.825q-12.3315,1.824-24.663,3.649a4.39614,4.39614,0,0,0-2.428.88,4.36342,4.36342,0,0,0-1.002,1.909c-2.737,8.354-6.193,16.528-7.822,25.203-.687,3.659-.342,7.269-.71,10.981a90.79279,90.79279,0,0,0-.499,10.546c.045,2.495,1.906,4.631,3.528,6.454a6.93892,6.93892,0,0,1-2.992-1.858c-4.657,2.414-5.845,10.477-6.444,15.247-.746,5.924-.516,11.909-.474,17.864" fill="none" stroke="#000" stroke-miterlimit="10"/><path d="M73.5062,462.726a15.129,15.129,0,0,1-4.963,2.485.58891.58891,0,0,0-.472.863q.831,3.93,1.665,7.861c.247,1.164.672,2.531,1.816,2.861a3.29682,3.29682,0,0,0,1.782-.156c2.765-.774,5.863-1.311,8.333-2.747,3.054-1.776,6.056-3.649,9.082-5.473a4.28027,4.28027,0,0,0,1.909-1.783,4.17444,4.17444,0,0,0-.116-2.721,82.90236,82.90236,0,0,0-10.059-22.474,8.51388,8.51388,0,0,0-3.638-3.628,8.65547,8.65547,0,0,0-4.231-.227,131.55214,131.55214,0,0,0-25.791,5.729,5.254,5.254,0,0,0-2.73,1.593,5.34549,5.34549,0,0,0-.761,2.011q-3.6585,15.906-7.318,31.813c.603-2.615,21.857-.683,24.368-.665.248.002.606-3.38.664-3.746q.759-4.791,1.519-9.582a.62266.62266,0,0,1,.592-.648q2.619-.6465,5.239-1.292a13.93581,13.93581,0,0,1,3.727-.568c-.207.174-.413.338-.617.494" fill="none" stroke="#000" stroke-miterlimit="10"/><path d="M33.8792,537.2904c-1.072-.499-2.327.218-3.123,1.093-1.863,2.048-2.027,5.084-1.34,7.629.769,2.85,1.174,3.897.826,7.219a13.69046,13.69046,0,0,0,1.326,7.432,3.108,3.108,0,0,0,1.386,1.592,3.44985,3.44985,0,0,0,1.272.212c3.872.159,7.976.265,11.351-1.643.654-1.594-.687-3.438-2.326-3.97-1.984-.643-4.034.41-5.904-.629.349-.133,3.052-.547,3.19.117a27.75591,27.75591,0,0,1-.118-10.6,15.58282,15.58282,0,0,0,.518-4.8,3.88789,3.88789,0,0,0-2.872-3.49" fill="none" stroke="#000" stroke-miterlimit="10"/><path d="M40.2168,537.9095c-.557,2.67-.692,7.879-4.293,7.587-1.604-.13-3.353-.659-4.163-2.05a6.17742,6.17742,0,0,1-.389-3.802c.453-4.108.821-8.644,2.284-12.544a6.25205,6.25205,0,0,0,3.569,2.859,7.0219,7.0219,0,0,0,3.07.467,5.15407,5.15407,0,0,0,2.937-1.64c.044.948-.706,1.743-.977,2.612a21.34347,21.34347,0,0,1-.737,3.163c-.185.385-.434.738-.628,1.118a8.85726,8.85726,0,0,0-.673,2.23" fill="none" stroke="#000" stroke-miterlimit="10"/><path d="M72.4391,538.8427c-1.68,1.567-3.469,3.35-3.681,5.638-.263,2.859,2.027,5.276,4.295,7.038a4.62031,4.62031,0,0,1,1.215,1.199,5.47971,5.47971,0,0,1,.499,2.203,11.02134,11.02134,0,0,0,12.376,9.626,4.19386,4.19386,0,0,0,1.969-.676,3.38251,3.38251,0,0,0,1.13-1.643c.85-2.466-.393-5.16-1.931-7.268-1.537-2.108-3.445-4.058-4.184-6.56-.304-1.034-.397-2.126-.759-3.141a3.33215,3.33215,0,0,0-2.135-2.25,8.80355,8.80355,0,0,0-2.435.098c-.815.036-1.783-.287-1.983-1.077-1.515-.342-3.076-1.186-2.995-2.737.018-.364.149-.764-.046-1.072a.80922.80922,0,0,0-1.226.03,2.32938,2.32938,0,0,0-.446,1.322" fill="none" stroke="#000" stroke-miterlimit="10"/><path d="M77.0235,525.1104c-1.76,4.073-2.704,8.846-4.312,13.103a5.31239,5.31239,0,0,0-.507,2.596c.413,2.814,5.328,4.797,7.591,3.103a8.05689,8.05689,0,0,0,1.908-2.398c2.19-3.62,4.112-6.61,5.042-10.738.85.139,1.088-1.323.401-1.84a3.933,3.933,0,0,0-2.502-.365,7.95566,7.95566,0,0,1-6.585-3.37c-.362-.523-.843-1.175-1.461-1.025-.618,3.449-1.71,6.669-2.304,10.066" fill="none" stroke="#000" stroke-miterlimit="10"/><path d="M95.5607,453.0267c.094-.259.178-.521.253-.776a9.77927,9.77927,0,0,1-.183,3.427c-.097.413-.187.93.148,1.192a.71633.71633,0,0,0,.842-.052,1.89484,1.89484,0,0,0,.521-.731,13.31815,13.31815,0,0,0,1.085-7.311c-.314-2.269-2.378-3.537-1.905-6.069a1.80948,1.80948,0,0,1,.311-.791,1.88541,1.88541,0,0,1,.837-.532,6.39047,6.39047,0,0,1,2.147-.404,4.77988,4.77988,0,0,0,1.618-.138,1.09924,1.09924,0,0,0,.762-1.264c-.743-2.119-6.111-1.569-7.619-1.232a4.35878,4.35878,0,0,0-2.956,2.544c-.489-1.28.69-2.033,1.484-2.756.309-.281-3.003-4.367-3.3-4.787a52.64926,52.64926,0,0,1-4.187-6.759c-5.335-10.804-1.45-23.649.418-34.811-2.006-1.302-4.853-.357-6.39,1.474-1.534,1.832-2.061,4.287-2.433,6.649-2.16,13.71-.415,28.769,8.322,39.553,1.374,1.697,2.25,3.252,4.442,4.081-.77,1.695-.336,3.659.028,5.483a1.5834,1.5834,0,0,1-.003.92c-.264.629-1.28.869-1.224,1.547.217,2.68,2.842-1.288,3.036-1.91a3.75452,3.75452,0,0,1-.655,2.331c-.306.442-.732.948-.531,1.447a.888.888,0,0,0,1.053.429,1.963,1.963,0,0,0,.968-.745,5.40732,5.40732,0,0,0,1.028-2.2c.351,1.216-.848,2.293-1.208,3.507a1.05848,1.05848,0,0,0,.039.854,1.01446,1.01446,0,0,0,1.131.302,3.54063,3.54063,0,0,0,2.121-2.472" fill="none" stroke="#000" stroke-miterlimit="10"/><path d="M42.5823,449.5764a2.625,2.625,0,0,0,1.765,1.642c.339-4.191,5.598-4.914,8.828-5.691,3.296-.791,6.62-1.527,9.962-2.103a74.55671,74.55671,0,0,1,11.534-.841c1.952-.03,3.995.125,5.935-.093a3.4518,3.4518,0,0,1,3.713,1.735c-.525-1.749.001-3.76-.098-5.563a52.30549,52.30549,0,0,0-1.055-7.127c-2.042-10.499-5.966-20.941-3.751-31.75a23.76193,23.76193,0,0,1,3.125-8.566,28.89675,28.89675,0,0,1-.78,3.192,9.46429,9.46429,0,0,0,2.39.003,3.18041,3.18041,0,0,0,2.045-1.137,4.76121,4.76121,0,0,0,.64-1.472,23.84064,23.84064,0,0,1,.825-2.795c.442-1.391.865-2.789,1.218-4.205a16.85261,16.85261,0,0,0,.521-7.327c-.606-3.047-3.107-6.542-6.178-7.506a48.88664,48.88664,0,0,0-4.832-1.164q-1.392-.285-2.782-.57c.105,3.482-4.238,6.472-7.274,6.946a9.47333,9.47333,0,0,1-5.579-.945c-.717-.355-4.119-2.244-4.094-3.181a.49186.49186,0,0,1,.177-.305,8.10725,8.10725,0,0,1,3.928-2.153,1.20911,1.20911,0,0,0-.235-.649c-9.596,2.534-17.675,6.851-23.592,14.958q-2.103,2.88148-4.206,5.762c-1.053,1.443-2.108,2.889-3.03,4.421-1.148,1.91-3.192,3.768.452,4.326a19.55942,19.55942,0,0,1,6.198,2.01c1.239.67,4.917,3.131,6.102,1.571a3.5073,3.5073,0,0,0,.544-1.56.54057.54057,0,0,0,1.041-.123,1.21046,1.21046,0,0,0-.324-.793c-.783-1.128-.619-3.163-1.705-4.037.595.478,1.111,1.061,1.684,1.533a7.6699,7.6699,0,0,1,2.91-2.213,10.91515,10.91515,0,0,1,3.834-.558q-1.683.816-3.366,1.634a5.464,5.464,0,0,0-1.004.578,3.72622,3.72622,0,0,0-1.269,2.349c-.547,3.291-.235,6.884-.619,10.238-.419,3.667-.996,7.313-1.483,10.972-.775,5.838-1.44,11.694-1.854,17.569-.208,2.937-.354,5.879-.419,8.822-.029,1.314-.298,2.933.158,4.166" fill="none" stroke="#000" stroke-miterlimit="10"/><path d="M33.2108,406.1624a22.6721,22.6721,0,0,0,4.688-.967,13.85259,13.85259,0,0,0,4.653-2.891c.806-.755,1.884-1.995.967-3.068a2.87256,2.87256,0,0,0-1.428-.902,2.89491,2.89491,0,0,1-1.008-.178,4.95181,4.95181,0,0,0-.904-.422,2.48106,2.48106,0,0,0-1.547.255,4.16919,4.16919,0,0,1-1.517.462,1.16108,1.16108,0,0,1-1.203-.834c-.07-.419.179-.894-.051-1.252a2.19173,2.19173,0,0,0-1.268-.777,6.31489,6.31489,0,0,0-1.69-.152,76.99022,76.99022,0,0,0-3.587,8.052,25.12439,25.12439,0,0,0-1.317,4.076,29.00535,29.00535,0,0,0-.387,4.511,9.8196,9.8196,0,0,0,.134,2.53,3.30971,3.30971,0,0,0,1.335,2.085,4.459,4.459,0,0,0,1.789.553c4.582.672,9.254,0,13.789-.945,4.533-.945,9.025-2.167,13.635-2.617.969-.095,1.867-.033,2.831-.192a9.5034,9.5034,0,0,1,3.31-.125,9.62639,9.62639,0,0,0,3.354-.283,5.7171,5.7171,0,0,0,3.399-1.562,3.70108,3.70108,0,0,0,.622-1.036,1.68946,1.68946,0,0,0,.138-1.022c-.062-.253-.219-.479-.259-.737-.098-.639.534-1.338.177-1.879-.167-.251-.499-.35-.68-.592a1.51142,1.51142,0,0,1-.127-1.06,1.01767,1.01767,0,0,0-.309-.99l-.19-.116c-.24-.217-.003-.596.068-.912a1.07619,1.07619,0,0,0-.532-1.089,2.49978,2.49978,0,0,0-1.24-.309c-2.244-.097-3.914,1.636-5.581,2.851l-.242.032a9.49725,9.49725,0,0,1,2.51-2.08c.171-.119.364-.286.328-.491a.4651.4651,0,0,0-.243-.294,2.57492,2.57492,0,0,0-2.061-.07c-2.2.644-4.472,2.234-4.237,4.79-3.708-1.436-7.745-1.063-11.626-.876-3.64.175-7.374-.749-10.822.364a14.02446,14.02446,0,0,1-4.992.357c.434-.072.875-.135,1.321-.198" fill="none" stroke="#000" stroke-miterlimit="10"/><path d="M79.9471,337.21991c-1.801-3.913-5.845-4.021-9.324-2.36-4.336,2.072-6.315,4.229-6.242,9.149.073,4.988.242,10.294,3.041,14.422a12.28364,12.28364,0,0,1,11.144-2.503.87873.87873,0,0,1-.355,1.249,2.58235,2.58235,0,0,1-1.453.179,8.354,8.354,0,0,0-4.816.643c-1.422.826-2.238,2.896-1.198,4.171,1.052,1.291,3.082.956,4.667.442a3.43876,3.43876,0,0,0,2.265-1.55c.381-.863-.468-2.141-1.321-1.737a6.38574,6.38574,0,0,1,3.425-.483,4.29,4.29,0,0,1-1.77,4.57,8.55423,8.55423,0,0,1-4.974,1.354c-3.028.034-6.315-.899-8.041-3.388-1.218-1.753-1.468-3.98-1.681-6.104-.322-3.197.435-12.976-2.182-15.214-.546-.468-1.412-.165-1.946.316a5.12843,5.12843,0,0,0-1.396,4.286,19.62069,19.62069,0,0,0,1.233,4.497,35.417,35.417,0,0,1,1.801,7.973c-.07-.705-2.544-2.822-3.028-3.614a16.75376,16.75376,0,0,1-2.095-5.348,14.67793,14.67793,0,0,1,1.518-10.374,29.02623,29.02623,0,0,1,18.378-13.292q-1.278,1.6425-2.555,3.285a17.762,17.762,0,0,1,5.773-2.445q-.5325,1.06948-1.063,2.138,1.23752-.021,2.473-.046c-1.156,2.755-1.57,6.978-.278,9.784" fill="none" stroke="#000" stroke-miterlimit="10"/><path d="M43.7153,402.3705a13.84941,13.84941,0,0,1-2.791,2.102.73959.73959,0,0,1-.446.136c-.231-.031-.374-.261-.495-.461a7.03493,7.03493,0,0,0-5.312-3.306,3.5756,3.5756,0,0,1-2.279,2.85,6.48745,6.48745,0,0,1-3.778.19,2.50792,2.50792,0,0,1-1.509-.752,2.80311,2.80311,0,0,1-.255-2.211q.783-4.6875,2.026-9.284a5.77983,5.77983,0,0,1,1.105-2.437c1.274-1.412,3.485-1.283,5.371-1.043q1.287.165,2.577.329a1.89428,1.89428,0,0,1,.938.295c1.278.997-1.674,6.815-2.073,8.106.179.02.357.038.535.058q.4125-.86248.821-1.725a.77484.77484,0,0,1,.327-.405.74154.74154,0,0,1,.515.028c2.973.947,5.262,1.922,6.174,5.168a1.11318,1.11318,0,0,1,.058.506,1.082,1.082,0,0,1-.239.438,13.89191,13.89191,0,0,1-1.27,1.418" fill="none" stroke="#000" stroke-miterlimit="10"/><path d="M35.7624,390.24071a.78509.78509,0,0,0-.309-.386,1.37189,1.37189,0,0,0-.494-.15,16.22729,16.22729,0,0,0-4.232-.339,2.31181,2.31181,0,0,0-.727.161c-.86.382-1.055,1.48-1.335,2.272-.216.62-.331,1.296-.494,1.932a8.24649,8.24649,0,0,0-.452,1.773c-.252.992-.522,1.981-.757,2.976-.201.855-.57,1.655-.696,2.537a.45254.45254,0,0,0,.017.268.47393.47393,0,0,0,.359.195,27.62274,27.62274,0,0,0,4.173.51,1.29474,1.29474,0,0,0,.598-.068c.571-.256.868-1.068,1.098-1.588q.483-1.101.905-2.229c.567-1.503,1.068-3.03,1.568-4.554.224-.681.446-1.361.671-2.042a2.76665,2.76665,0,0,0,.184-.879,1.1088,1.1088,0,0,0-.077-.389" fill="none" stroke="#000" stroke-miterlimit="10"/><path d="M165.94141,431.4122l.183.405a36.784,36.784,0,0,0-.015-4.913.53074.53074,0,0,0-.113-.353.51845.51845,0,0,0-.264-.115,7.08217,7.08217,0,0,0-1.871-.151,34.07683,34.07683,0,0,1-.043,4.575l-.053.093-.001-.053c-.014.298-.092.674.134.867a1.00328,1.00328,0,0,0,.792.115c.444-.06.889-.122,1.334-.183l.005-.208" fill="none" stroke="#000" stroke-miterlimit="10"/><path d="M159.5201,431.4122c.061.135.122.27.184.405a36.95244,36.95244,0,0,0-.016-4.913.53068.53068,0,0,0-.113-.353.51808.51808,0,0,0-.265-.115,7.07482,7.07482,0,0,0-1.87-.151,34.0767,34.0767,0,0,1-.042,4.575l-.055.093-.001-.053c-.013.298-.091.674.135.867a1.00328,1.00328,0,0,0,.792.115c.445-.06.889-.122,1.334-.183l.006-.208" fill="none" stroke="#000" stroke-miterlimit="10"/><path d="M172.11259,432.2489c-.946-.255-1.915-.401-2.875-.6a5.90617,5.90617,0,0,1-2.685-1.041l-.192-.086-.152.168a1.23963,1.23963,0,0,1-2.318-.312,2.48881,2.48881,0,0,0-.847,1.878c-.001.115.249,1.712.28,1.707-.263.044-.526.088-.789.134a1.70829,1.70829,0,0,0,.1.743c.174.471,5.406.346,6.054.367,1.768.054,3.643.539,5.335-.14l.006-1.06c-.172-.011-.343-.02-.515-.029.199.011-.162-1.156-.253-1.258a2.22041,2.22041,0,0,0-1.149-.471" fill="none" stroke="#000" stroke-miterlimit="10"/><path d="M158.0632,435.1608q-2.403.048-4.807.008c-.808-.015-1.649.016-2.452-.073-.931-.102-.789-.087-.99-1.091.193-.009.386-.016.58-.024a2.85479,2.85479,0,0,1,.24-1.327c.387-.874,2.537-.903,3.296-.995a6.48489,6.48489,0,0,0,3.376-1.089c.217.119.219.421.308.651a.99715.99715,0,0,0,1.143.526,1.90288,1.90288,0,0,0,1.076-.798,1.655,1.655,0,0,1,.713,1.269,3.82608,3.82608,0,0,0,.047,1.152c.077.214.422.244.476.466a.96082.96082,0,0,1-.433,1.115c-.667.472-1.817.195-2.573.21" fill="none" stroke="#000" stroke-miterlimit="10"/><path d="M168.6002,411.4623c.332-2.923.96-5.778,1.381-8.642a52.91819,52.91819,0,0,0,.128-10.363.62694.62694,0,0,0-.199-.517.6164.6164,0,0,0-.351-.067c-4.156.038-8.287.251-12.443-.037a3.29946,3.29946,0,0,0-.401,1.561,169.81469,169.81469,0,0,0-.569,17.297c.101,5.463-.071,10.925-.029,16.399a1.12065,1.12065,0,0,0,.171.717,1.04993,1.04993,0,0,0,.732.289,8.79412,8.79412,0,0,0,3.477-.336c.242-.073.021-6.529.037-7.189q.096-3.723.349-7.439c.306-4.5.37-9.496,1.388-13.862a1.25594,1.25594,0,0,0,.041-.604c-.21-.794-1.691-.693-1.806-1.505q2.44048-.0615,4.885.037c-.532.259-1.062.518-1.594.777a.80348.80348,0,0,0-.365.273.81728.81728,0,0,0-.079.414q-.201,14.5125-.401,29.023a23.52412,23.52412,0,0,0,4.221.032q.50548-8.145,1.427-16.258" fill="none" stroke="#000" stroke-miterlimit="10"/><path d="M150.42859,402.74821c-4.83-3.95-12.567-2.904-17.708-.007-8.573,4.834-12.506,15.542-6.91,24.028,1.79,2.716,4.261,5.319,7.412,6.389,3.333,1.132,8.021,1.961,11.474,1.149,14.706-3.461,16.655-22.623,5.732-31.559m-6.206,29.74c-3.081.727-7.265-.014-10.238-1.025-2.813-.955-5.018-3.279-6.616-5.702-4.993-7.573-1.484-17.13,6.167-21.443,4.589-2.586,11.492-3.52,15.803.006,9.748,7.974,8.01,25.076-5.116,28.164" fill="none" stroke="#000" stroke-miterlimit="10"/><path d="M149.42769,404.3242c-4.311-3.526-11.215-2.592-15.803-.006-7.652,4.313-11.16,13.87-6.166,21.443,1.597,2.423,3.802,4.747,6.615,5.702,2.974,1.011,7.157,1.751,10.238,1.025,13.125-3.088,14.865-20.19,5.116-28.164m-5.216,27.784c-3.001.706-7.08-.016-9.979-1a13.3579,13.3579,0,0,1-6.448-5.559c-4.867-7.382-1.448-16.696,6.01-20.9,4.473-2.522,11.203-3.43,15.405.006,9.501,7.771,7.806,24.442-4.988,27.453" fill="none" stroke="#000" stroke-miterlimit="10"/><path d="M161.2733,373.37691a3.30847,3.30847,0,0,0-.288-1.643,2.3215,2.3215,0,0,0-.607-.709,3.08686,3.08686,0,0,0-1.924-.676l-.231.063-.081.18q-.5325,2.26048-.892,4.556c-.14.887-.637,2.776-.123,3.608a1.86118,1.86118,0,0,0,.383.405q.33149.288.665.575c-1.103-.564-1.733-.537-2.524.405a21.84427,21.84427,0,0,1-3.527,3.719c-1.233.914-2.883.868-3.95,1.985-1.902,1.993-.134,3.791,1.888,4.408.139.042.326.063.4-.062l.034-.176c.002-.228.004-.455.007-.684a1.78231,1.78231,0,0,0,1.456.505c.006-.197.012-.395.02-.591a.45081.45081,0,0,0,.679-.426l.242-.024c-.026-.597.342-1.23.067-1.76-.279-.536-1.091-.664-1.277-1.238.572-.073,1.064.419,1.634.499,1.065.152,2.221-1.308,3.058-1.838a15.397,15.397,0,0,0,3.023-1.96c.595-.637.373-1.216.532-2.012.31-1.548.821-3.086,1.029-4.652a24.01206,24.01206,0,0,0,.307-2.457" fill="none" stroke="#000" stroke-miterlimit="10"/><path d="M164.9501,360.2411c-1.933.195-4.492,1.271-5.349,3.145-.285.624-2.97,7.937-2.699,7.985q1.4445.258,2.892.515c.406.072.447-.494.617-.738a29.82784,29.82784,0,0,1-.573,4.911q-.4515,2.634-1.006,5.252-.6015,2.8545-1.371,5.67c-.131.484-1.607,4.404-1.022,4.74a8.56442,8.56442,0,0,0,4.605.835,57.42067,57.42067,0,0,1,9.418.273,22.75345,22.75345,0,0,0,2.308-6.726c.207-1.183.321-2.386.632-3.546.126-.473.286-.938.394-1.414.121-.533.18-1.078.269-1.618.43-2.612,1.591-5.052,1.963-7.66-.055.196-.111.39-.165.585a7.26876,7.26876,0,0,0,1.664.239c.061.011.517-2.703.567-2.918.313-1.328,1.041-2.487.56-3.903a11.6669,11.6669,0,0,0-3.398-4.786,6.80232,6.80232,0,0,0-4.983-1.545c-1.776.216-3.541.523-5.323.704" fill="none" stroke="#000" stroke-miterlimit="10"/><path d="M175.59151,414.69521q-1.80151,3.0435-3.847,5.933c-.221-.162-.441-.326-.663-.488l-.16-.184a.38556.38556,0,0,1,.062-.27q1.32749-2.6085,2.657-5.217a12.32643,12.32643,0,0,0,4.248.162,7.90946,7.90946,0,0,1,.406-1.611q-3.078-.1515-6.164-.098c-.052.442-.106.884-.157,1.325l.017.173c.05.081.164.086.26.08q.8565-.048,1.71-.142" fill="none" stroke="#000" stroke-miterlimit="10"/><path d="M174.89378,419.287a4.96605,4.96605,0,0,0-3.41-2.926,3.61933,3.61933,0,0,0-3.83,1.338c-1.294,1.656-1.484,4.508.327,5.874a5.0817,5.0817,0,0,0,2.677,1.006,8.399,8.399,0,0,0,1.345-.033,4.33,4.33,0,0,0,1.546-.35c1.724-.851,1.901-3.262,1.345-4.909m-2.856,2.737a1.85348,1.85348,0,0,1-.66.151,3.78394,3.78394,0,0,1-.573.013,2.16708,2.16708,0,0,1-1.141-.429,1.82877,1.82877,0,0,1-.14-2.505,1.5437,1.5437,0,0,1,1.633-.569,2.11521,2.11521,0,0,1,1.454,1.246,1.72075,1.72075,0,0,1-.573,2.093" fill="none" stroke="#000" stroke-miterlimit="10"/><path d="M200.07,434.4539c6.075-1.594,9.752-8.509,10.386-14.408,1.058-9.838-5.432-19.372-15.683-19.838-3.279-.15-6.867.321-9.594,2.252-2.883,2.044-6.313,5.368-7.669,8.658-5.78,14.019,8.817,26.941,22.56,23.336m-20.789-22.645c1.211-2.936,4.271-5.904,6.845-7.727,2.433-1.723,5.634-2.144,8.562-2.01,9.148.417,14.94,8.926,13.996,17.705-.566,5.264-3.847,11.436-9.27,12.859-12.264,3.216-25.291-8.317-20.133-20.827" fill="none" stroke="#000" stroke-miterlimit="10"/><path d="M199.36189,432.7074c5.423-1.421,8.704-7.593,9.27-12.859.944-8.779-4.848-17.287-13.996-17.704-2.928-.133-6.129.286-8.563,2.011-2.573,1.823-5.633,4.79-6.844,7.726-5.158,12.511,7.869,24.043,20.133,20.826m-19.761-20.681c1.179-2.862,4.163-5.755,6.671-7.531,2.372-1.68,5.492-2.09,8.345-1.96,8.917.406,14.562,8.7,13.643,17.258-.552,5.131-3.75,11.146-9.036,12.532-11.954,3.137-24.651-8.105-19.623-20.299" fill="none" stroke="#000" stroke-miterlimit="10"/><path d="M138.6873,415.9001c-2.882,2.158.007,6.6,3.125,4.583a3.34526,3.34526,0,0,0,1.45-2.54,2.43888,2.43888,0,0,0-.473-1.755,2.51738,2.51738,0,0,0-1.372-.767,3.32208,3.32208,0,0,0-2.73.479" fill="none" stroke="#000" stroke-miterlimit="10"/><path d="M190.6321,419.1377c2.217,2.838,6.599-.142,4.517-3.218a3.34413,3.34413,0,0,0-2.569-1.398,2.436,2.436,0,0,0-1.743.51,2.512,2.512,0,0,0-.74,1.387,3.32693,3.32693,0,0,0,.535,2.719" fill="none" stroke="#000" stroke-miterlimit="10"/><path d="M180.44508,400.26161c.504-1.417,1.261-3.376.156-4.202-.917-.687-3.541.605-4.878.451-7.356-.846-14.716-1.755-21.972-3.284q.303-1.3095.608-2.622-1.1655-.2535-2.33-.509a.44741.44741,0,0,0-.65.309c-2.317,5.568-4.403,11.221-6.85,16.769q-1.677,3.79948-3.407,7.572c-.366.796-1.505,2.243-1.634,3.008-.084.492-.47.272-.09.823.073.107,1.029.606,1.094.48q5.1795-10.0545,9.394-20.567,3.351,4.45648,6.703,8.913a67.22592,67.22592,0,0,0,8.335,9.69c3.169,2.867,6.701,5.348,11.129,4.651q8.2095-1.293,16.315-3.149c.798-.183,1.976-.74,1.302-1.685q-6.24151-8.745-12.483-17.49a4.16668,4.16668,0,0,1-1.05,1.824,9.15512,9.15512,0,0,1,.308-.982m-9.142,18.965a105.8749,105.8749,0,0,1-17.684-18.795c-.815-1.09-2.129-2.296-2.578-3.573a2.91691,2.91691,0,0,1-.998,1.043,34.15336,34.15336,0,0,1,1.522-3.698c4.218.836,8.497,1.326,12.717,2.162,4.154.823,8.223,2.287,12.483,2.446.393.016.902.121.947.511a.849.849,0,0,1-.119.442c-1.447,3.018-1.22,5.948-2.264,8.994-1.252,3.524-2.668,6.995-4.026,10.468m10.055-.335q-3.894.57452-7.804,1.011c1.506-4.497,3.243-8.944,4.87-13.412a27.07207,27.07207,0,0,1,2.097-4.779q2.0235,3.1755,4.046,6.352c1.07,1.679,2.141,3.361,3.319,4.97a17.65261,17.65261,0,0,0,1.938,2.426,7.87334,7.87334,0,0,1,1.632,1.696q-5.0295.9855-10.098,1.736" fill="none" stroke="#000" stroke-miterlimit="10"/><path d="M153.6,390.9868a5.794,5.794,0,0,0,.481-2.216.47689.47689,0,0,0-.053-.275l-.226-.158a19.88675,19.88675,0,0,0-2.198-.821c.366-.274.774-.642.706-1.095a.87059.87059,0,0,0-.583-.635,2.56468,2.56468,0,0,0-.895-.105q-2.583.0045-5.167.008a2.64381,2.64381,0,0,0-.187.974.4773.4773,0,0,0,.062.276.52271.52271,0,0,0,.307.164,53.8584,53.8584,0,0,1,6.563,2.238,11.06854,11.06854,0,0,1-.605,1.677" fill="none" stroke="#000" stroke-miterlimit="10"/><path d="M164.2571,426.5217q-.07353.843-.148,1.687a60.68961,60.68961,0,0,1,6.452.293,9.693,9.693,0,0,0,.184-1.389q-1.63652.05251-3.275.029a2.71692,2.71692,0,0,1,1.685-.421,16.32143,16.32143,0,0,0,1.666-3.895c-.525-.195-1.048-.39-1.573-.585a.36356.36356,0,0,0-.591.264,22.1213,22.1213,0,0,1-1.454,3.69.68164.68164,0,0,1-.283.34.67225.67225,0,0,1-.423,0c-.716-.154-1.486-.076-2.223-.207Z" fill="none" stroke="#000" stroke-miterlimit="10"/><path d="M171.35159,421.5417a.37608.37608,0,0,0,.061-.269l-.16-.184q-.33149-.24451-.663-.488-2.03249,2.87251-3.828,5.904a12.21369,12.21369,0,0,1,1.932.256q1.33048-2.61,2.658-5.219" fill="none" stroke="#000" stroke-miterlimit="10"/><path d="M177.5238,371.7448l-.005-.164a1.79179,1.79179,0,0,0-.167-.821,1.9936,1.9936,0,0,0-1.263-.773c-.829-.249-1.886-.432-2.422.247a2.15941,2.15941,0,0,0-.32.713,53.43712,53.43712,0,0,0-1.532,6.364,32.39339,32.39339,0,0,1-.989,4.852l1.201.563c-.341.006-.683.014-1.026.021l-.221.066-.057.133a27.97875,27.97875,0,0,0-1.019,5.323c-.085,1.991-.446,4.014-.674,5.993a.54482.54482,0,0,1-.139.367.62673.62673,0,0,1-.45.073,2.07427,2.07427,0,0,0-1.607.641,8.59225,8.59225,0,0,0,2.161.22,3.70582,3.70582,0,0,0-1.183,2.985,2.674,2.674,0,0,0,1.637-.38c-.18.316.345.586.695.492s.746-.31,1.042-.1a3.42759,3.42759,0,0,1,.266.273c.36.314.971.039,1.173-.395a2.69227,2.69227,0,0,0,.081-1.412,23.876,23.876,0,0,1,.643-6.868c.852-4.416,2.443-8.725,3.45-13.141a22.09091,22.09091,0,0,0,.725-5.272" fill="none" stroke="#000" stroke-miterlimit="10"/><path d="M168.78729,371.37961q-.807-.75-1.615-1.498c-.344-.32-.71-.836-.417-1.203.192-.24.549-.234.849-.307a3.48775,3.48775,0,0,0,1.469-1.059,17.20785,17.20785,0,0,1,2.823-2.049q1.749-1.095,3.5-2.193a1.27509,1.27509,0,0,1,.534-.23c.399-.038.73.296.978.612,1.107,1.414,2.114,3.077,1.93,4.911q-.2715,2.718-.547,5.439-3.2565-.633-6.516-1.263c-1.75-.337-3.037-1.647-4.747-2.176" fill="none" stroke="#000" stroke-miterlimit="10"/><path d="M164.9875,360.2234a4.57838,4.57838,0,0,0-.239,2.294,1.573,1.573,0,0,0,1.676,1.278,2.183,2.183,0,0,0,.913-.534,19.93693,19.93693,0,0,0,2.161-2.14,3.78,3.78,0,0,1,2.141-1.583,9.98282,9.98282,0,0,0-1.412-.09,13.73853,13.73853,0,0,0-.62-3.545c-.24-.716-.008-.609-.706-.655a8.50936,8.50936,0,0,0-1.686.426,21.44467,21.44467,0,0,1,2.708-1.354c1.857-.97,1.6-2.334,1.532-4.19.358-.063.717-.128,1.075-.192q-1.15052-2.88751-2.305-5.775a3.77076,3.77076,0,0,0-2.166-2.229,2.38158,2.38158,0,0,0-2.94,1.012c-.886,1.103-2.028,2.049-1.938,3.589a9.81617,9.81617,0,0,0,.672,2.563c.483,1.413.641,2.911,1.112,4.328.326.976.965,1.451,1.021,2.491.072,1.319.054,2.648.1,3.969a1.8374,1.8374,0,0,0-1.279.463" fill="none" stroke="#000" stroke-miterlimit="10"/><path d="M164.03751,351.2122c-.416.351-.224,1.02.001,1.516a3.99778,3.99778,0,0,0,1.479,2.146,2.6226,2.6226,0,0,1,.722.463q-.531-1.671-1.065-3.34a16.908,16.908,0,0,1-1.27-4.755.54294.54294,0,0,1,.087-.367.39353.39353,0,0,1,.54.007,1.14038,1.14038,0,0,1,.284.522,17.17918,17.17918,0,0,0,.904,2.566c.013-1.121-.065-2.239-.023-3.36.022-.616.064-1.232.144-1.842.04-.3.422-1.379.306-1.612.127.264.252.528.379.792a3.14217,3.14217,0,0,1,.863-1.397,3.46793,3.46793,0,0,1,2.604.9,3.59969,3.59969,0,0,0,1.263-3.641,5.139,5.139,0,0,0-1.292.255,1.82061,1.82061,0,0,0-.275-1.538,1.5284,1.5284,0,0,0-1.674-.079c-.962.426-2.284.395-3.034,1.053-.76.668-1.39,1.426-2.221,2.067a1.29543,1.29543,0,0,0-.382.395,1.27758,1.27758,0,0,0-.105.496,14.96766,14.96766,0,0,0,.147,4.819c.1.369,1.549,3.992,1.618,3.934" fill="none" stroke="#000" stroke-miterlimit="10"/><path d="M182.15939,393.13879c-.267-.064-1.276,3.533-1.21,3.864a.76451.76451,0,0,0-.53-.534,2.2588,2.2588,0,0,0-.783-.069,4.59927,4.59927,0,0,1-1.545-.048c.118-.437,1.17-4.017,1.513-3.992a51.87409,51.87409,0,0,1-5.336-.559c-.422-.075-1.896-.192-2.111-.68-.449-1.019,1.943-1.336,2.485-1.415a42.69655,42.69655,0,0,1,5.626-.378c1.07-.011,4.02-.519,4.794.424a2.0583,2.0583,0,0,1,.364,1.017,2.56584,2.56584,0,0,1-.078,1.432c-.358.81-1.124.609-1.828.593q-1.554-.033-3.108-.067.873.204,1.747.412" fill="none" stroke="#000" stroke-miterlimit="10"/><path d="M281.55521,535.3254c9.517-.171,19.042-.342,28.56-.342,14.598,0,29.181.402,43.695,1.82,8.817.861,17.605,2.097,26.449,2.872q11.08053.972,22.217.972,8.50649,0,16.999-.568l-.039-.59q-8.469.567-16.96.567-11.097,0-22.166-.97c-8.823-.772-17.609-2.009-26.442-2.871-14.542-1.421-29.144-1.822-43.753-1.822-9.526,0-19.054.17-28.57.341Z" fill="none" stroke="#000" stroke-miterlimit="10"/><path d="M187.4977,540.909q2.0625-.021,4.137-.021c13.639,0,27.617.634,41.364.634,6.133,0,12.22-.126,18.211-.491l.289-.018-.011-.289q-.0435-1.0965-.044-2.189a35.3052,35.3052,0,0,1,1.132-9.352l-.286-.078-.283.082a88.47109,88.47109,0,0,1,2.339,10.439l.316,1.961.267-1.968a20.05048,20.05048,0,0,1,3.656-9.072l-.238-.174-.295.006q.10647,5.57848.216,11.157l.039,2.083.54-2.012a17.91118,17.91118,0,0,1,4.545-7.911l-.209-.207-.292-.049q-.66,4.0155-1.318,8.029l-.083.506.479-.181c4.504-1.713,10.004-2.312,15.866-2.311,11.648-.001,24.707,2.359,34.299,2.905,15.213.861,30.366,2.097,45.604,2.872q19.092.9705,38.282.97,14.6565,0,29.291-.567l-.022-.591q-14.613.5685-29.269.567-19.15049,0-38.252-.97c-15.226-.772-30.378-2.009-45.601-2.871-9.534-.539-22.61-2.905-34.332-2.906-5.901.001-11.464.598-16.076,2.35l.105.275.292.049q.65855-4.0155,1.318-8.03l.15-.913-.651.658a18.46594,18.46594,0,0,0-4.696,8.172l.285.077.295-.006q-.108-5.5785-.214-11.157l-.017-.876-.518.708a20.63152,20.63152,0,0,0-3.763,9.341l.292.039.291-.046a89.06759,89.06759,0,0,0-2.353-10.51l-.293-1.012-.276,1.016a35.88223,35.88223,0,0,0-1.153,9.508c0,.737.016,1.474.044,2.213l.296-.012-.018-.295c-5.975.365-12.051.491-18.176.491-13.729.001-27.707-.634-41.364-.634q-2.079,0-4.143.02Z" fill="none" stroke="#000" stroke-miterlimit="10"/><path d="M146.1264,509.9605a2.8227,2.8227,0,0,1-1.473-1.678q-1.34552-2.922-2.691-5.842a4.55416,4.55416,0,0,1-.486-1.472,4.13649,4.13649,0,0,1,.223-1.483,9.53427,9.53427,0,0,1,2.765-4.97,10.11648,10.11648,0,0,1,4.922-2.003,33.2787,33.2787,0,0,1,5.554-.241q13.0965.16048,26.193.32c1.003.013,2.237.15,2.592.926.316.691-.3,1.439-.242,2.175a3.29485,3.29485,0,0,0,.642,1.366c1.218,1.963,1.303,4.256,1.362,6.461a4.91749,4.91749,0,0,1-.302,2.287,4.76675,4.76675,0,0,1-2.381,2.05c-3.701,1.731-8.265,1.166-12.503,1.456-2.031.14-4.035.487-6.068.619-4.601.302-9.219-.501-13.831-.321a8.27232,8.27232,0,0,0-3.477.707" fill="none" stroke="#000" stroke-miterlimit="10"/><path d="M422.4346,510.8129c-1.648-.607-8.949,2.743-11.072,3.127a80.25063,80.25063,0,0,1-12.465,1.168c-7.967.186-16.041-.139-23.965-.37-18.18-.53-36.347-.74-54.531-.288,5.574-4.017,9.13-13.959,15.433-16.624a5.77432,5.77432,0,0,1,2.299-.303c20.881.129,41.915,4.021,62.521.64a8.09635,8.09635,0,0,1,3.539-.078c1.525.438,2.609,1.742,3.677,2.916a37.15322,37.15322,0,0,0,14.564,9.812" fill="none" stroke="#000" stroke-miterlimit="10"/><path d="M396.97311,505.8437a11.53965,11.53965,0,0,0,4.782-.178q2.02948-.363,4.058-.727a6.97906,6.97906,0,0,1,1.707-.161,8.37822,8.37822,0,0,1,1.718.397,19.41557,19.41557,0,0,0,7.882.602c.338-.043.74-.15.84-.474.141-.45-.405-.79-.852-.937-2.681-.882-5.639-1.544-7.51-3.656-.386-.435-.775-.96-1.351-1.042a1.35134,1.35134,0,0,0-1.322.795,2.78622,2.78622,0,0,0-.172,1.616c-.894-1.148-2.495-1.414-3.942-1.557q-3.06149-.303-6.138-.385" fill="none" stroke="#000" stroke-miterlimit="10"/><path d="M344.5647,492.4292a99.64231,99.64231,0,0,0,2.616,11.627,22.82818,22.82818,0,0,0-10.667.542c.239.277.477.554.717.83a.7634.7634,0,0,0-.451.947,87.59147,87.59147,0,0,0,12.267.576,1.78451,1.78451,0,0,0,1.456-.498,1.74788,1.74788,0,0,0,.235-1.001,39.07437,39.07437,0,0,1,.275-5.281,30.57164,30.57164,0,0,0,.595-3.577c.106-2.514-1.082-4.882-2.239-7.116" fill="none" stroke="#000" stroke-miterlimit="10"/><path d="M365.16129,448.4453a63.09022,63.09022,0,0,1,6.626-3.092,6.02169,6.02169,0,0,1,2.857-.599,4.1062,4.1062,0,0,1,3.279,3.739,8.56322,8.56322,0,0,1-1.411,5.093c-.435.748-.92,1.705-.416,2.408q-.97351.594-1.947,1.186a1.04239,1.04239,0,0,1,1.308.477,3.03294,3.03294,0,0,1,.302,1.49,92.74311,92.74311,0,0,1-.31,14.369,26.07211,26.07211,0,0,1-2.031-16.018c-.751-.251-1.431.51-2.184.755-1.545.502-2.853-1.182-3.61-2.618" fill="none" stroke="#000" stroke-miterlimit="10"/><path d="M359.7323,459.4686a9.343,9.343,0,0,1,1.441,1.253c.861,1.05,1.002,2.564,1.911,3.573,1.081,1.2,3.979,1.637,5.501,1.236,1.857-.488,1.889-3.219,1.997-4.967a17.869,17.869,0,0,0-4.042-12.505,16.805,16.805,0,0,1,3.133,2.816,10.09489,10.09489,0,0,0,4.798-5.575,4.22891,4.22891,0,0,0-4.065-1.106,4.16369,4.16369,0,0,1-1.255.275c-1.137-.051-1.884-1.439-3.022-1.457q-.0255.91051-.048,1.821a2.10518,2.10518,0,0,0-1.092.277c-.204-1.312-1.25-2.42-1.263-3.747a4.38925,4.38925,0,0,1,.678-2.11c.765-1.39,1.697-2.669,2.473-4.041a33.837,33.837,0,0,0,1.669-4.396,15.40813,15.40813,0,0,1,1.63-3.026,11.67783,11.67783,0,0,0,1.061-1.682,2.75792,2.75792,0,0,0,.22-1.935c-1.269.376-1.825,1.825-2.207,3.093a19.29194,19.29194,0,0,0-1.74-8.842c-.121-.263-.424-.57-.643-.379-.129.114-.102.317-.063.484q.258,1.131.518,2.265a14.75563,14.75563,0,0,0-1.632-2.81c-.132-.177-.4-.357-.537-.186a19.50631,19.50631,0,0,0,.558,2.731,3.29186,3.29186,0,0,0-1.257-1.908.55458.55458,0,0,0-.47-.14c-.311.1-.246.558-.117.859q.36452.843.726,1.687a2.9454,2.9454,0,0,0-.582-.861,1.00571,1.00571,0,0,0-.961-.264c.773,1.506.863,3.165,1.868,4.595a9.60305,9.60305,0,0,1,.576.845,3.05167,3.05167,0,0,1,.374,1.225l-.025.254c-.076.17-.286.22-.468.259a5.68766,5.68766,0,0,0-2.946,1.906c-1.078,1.136-2.185,2.238-3.231,3.404-2.09,2.327-4.135,4.965-4.448,8.078a16.27265,16.27265,0,0,0,.335,4.311c.86,5.128.057,10.999,4.647,14.69" fill="none" stroke="#000" stroke-miterlimit="10"/><path d="M328.65289,465.0128c2.566,3.54,5.532,7.156,7.545,10.888a359.32837,359.32837,0,0,1-52.579-.196c-5.17-.377-10.339-.859-15.522-.905a185.07838,185.07838,0,0,0-19.094,1.149c.569-1.543,3.153-3.357,4.211-4.782q2.352-3.165,4.705-6.327a4.0721,4.0721,0,0,1,4.388-2.095q30.88052.83849,61.776.054a4.21532,4.21532,0,0,1,4.57,2.214" fill="none" stroke="#000" stroke-miterlimit="10"/><path d="M292.5401,413.629a8.59022,8.59022,0,0,0-3.283-1.483,4.85047,4.85047,0,0,1-1.9,1.943,6.036,6.036,0,0,1-2.715.187,3.08275,3.08275,0,0,0-2.541.765c-.751.874-.541,2.366-1.44,3.086-.29.234-.673.358-.898.653a1.51894,1.51894,0,0,0-.251.679,5.40433,5.40433,0,0,0,3.189,5.604,6.61452,6.61452,0,0,0,6.547-.955,4.16181,4.16181,0,0,0-.826,4.137,3.04352,3.04352,0,0,0,3.595,1.813,1.18988,1.18988,0,0,1,.695-.121c.46.133.475.803.823,1.133a.97461.97461,0,0,0,1.253-.074,2.81873,2.81873,0,0,0,.697-1.171,5.39566,5.39566,0,0,0,.553-2.97,3.6618,3.6618,0,0,0-.433-1.08,4.48,4.48,0,0,0-2.127-1.965,3.07782,3.07782,0,0,0-2.826.208,6.87329,6.87329,0,0,0,3.142-4.839c.462-1.937.367-4.166-1.254-5.55" fill="none" stroke="#000" stroke-miterlimit="10"/><path d="M278.32141,453.97571c1.734-.184,3.132,1.303,4.324,2.576,5.842,6.235,13.824,10.218,22.149,12.144,8.324,1.924,17,1.887,25.49.931a5.44454,5.44454,0,0,0-8.121-1.629,22.55116,22.55116,0,0,0-20.715-3.539c.36-1.219-.728-2.346-1.709-3.153-3.93-3.233-8.705-7.29-11.399-11.632-.755-1.219-1.725-2.699-3.154-2.565a13.56715,13.56715,0,0,0-1.376.367c-1.629.325-3.067-1.027-4.18-2.262" fill="none" stroke="#000" stroke-miterlimit="10"/><path d="M262.61139,470.6396a25.43939,25.43939,0,0,1-11.926.763,15.83122,15.83122,0,0,1,9.179-2.306,8.81563,8.81563,0,0,0-1.668-3.623,68.344,68.344,0,0,1-4.84-8.843c-.798-1.753-3.701-6.436-1.796-8.151a4.98606,4.98606,0,0,1,2.245-.95,144.43246,144.43246,0,0,0,16.016-4.338,6.987,6.987,0,0,1,2.014-.528,2.19011,2.19011,0,0,1,1.866.746c1.399,1.845,1.367,3.335.832,5.606a2.37731,2.37731,0,0,1-.366.936,2.74945,2.74945,0,0,1-1.692.738c-2.774.596-5.171,2.389-7.936,3.028a15.20769,15.20769,0,0,1-5.599.038,41.98559,41.98559,0,0,0-4.35-.248c3.544.175,6.259,1.432,7.255,5.046a28.29694,28.29694,0,0,1,.655,11.985" fill="none" stroke="#000" stroke-miterlimit="10"/><path d="M280.61511,434.9482q1.38-3.336,2.547-6.752a14.24189,14.24189,0,0,0,.958-4.344c.039-2.627-1.721-4.567-1.833-7.072a7.79705,7.79705,0,0,0,1.828,1.371,2.6389,2.6389,0,0,0,2.214.126,1.61722,1.61722,0,0,0,.916-1.881,3.31878,3.31878,0,0,0,2.702-.791,2.26218,2.26218,0,0,0,.479-2.66c-1.047-1.815-4.315-1.045-5.392-2.841-.203-.34-.563-.819-.862-.559a.58333.58333,0,0,0-.15.319c-.083.346-.166.695-.249,1.042a7.69168,7.69168,0,0,0-2.494.8.74016.74016,0,0,0-.343.287.77549.77549,0,0,0-.03.468q.17848,1.23751.354,2.473a33.06066,33.06066,0,0,1-3.017-6.772,27.42118,27.42118,0,0,1-.846-4.373c-.543-3.96-1.088-7.922-1.585-11.888-.442-3.52-1.05-6.802.117-10.267a2.11051,2.11051,0,0,0,.087-1.797,5.33287,5.33287,0,0,0-1.382,3.289,14.183,14.183,0,0,0-1.089-7.593c-.097-.232-.353-.499-.547-.341a.38911.38911,0,0,0-.102.305c0,.815.484,1.639.216,2.409a3.84194,3.84194,0,0,0-.77-2.305c-.166-.091-.268.199-.239.387q.16653,1.05752.333,2.113-.288-.693-.576-1.385c-.139-.337-.426-.742-.766-.61-.207.839.561,1.658.461,2.517a4.602,4.602,0,0,0-1.265-2.035,2.81765,2.81765,0,0,0,.23,1.739,27.84081,27.84081,0,0,1,.743,6.457c.165,2.679,1.367,5.461,1.775,8.155a87.89411,87.89411,0,0,1,.846,11.791c.057,3.655-.615,7.553-.034,11.159.249,1.542.801,3.022,1.064,4.563a39.34358,39.34358,0,0,1,.145,6.66,11.75981,11.75981,0,0,0,1.452,6.418" fill="none" stroke="#000" stroke-miterlimit="10"/><path d="M280.496,456.3343a17.87759,17.87759,0,0,0-7.752-4.958,1.7047,1.7047,0,0,1-.725-.361,1.62437,1.62437,0,0,1-.334-1.017q-.354-3.7935-.702-7.585a1.76655,1.76655,0,0,1,1.453-.614q.03451-4.63652.071-9.277a2.78726,2.78726,0,0,0-.299-1.572c-.426-.65-1.316-.845-1.811-1.446-.851-1.035-.136-2.571.592-3.698q2.3595-3.651,4.719-7.303a34.806,34.806,0,0,0,.39,10.802,4.94026,4.94026,0,0,0,.861,2.237c1.192,1.467,3.446,1.265,5.306.93a14.81819,14.81819,0,0,0-1.237,7.154.428.428,0,0,1-.379.564,24.91884,24.91884,0,0,0-2.832.989c-.38.159-.799.377-.899.776,2.546-1.458,5.884-1.823,8.402-.103a7.10519,7.10519,0,0,1,2.836,7.286,14.5053,14.5053,0,0,0-7.261,7.682" fill="none" stroke="#000" stroke-miterlimit="10"/><path d="M354.7739,462.8844c-.545,2.369.106,4.842.931,7.128,1.499,4.155,1.678,8.665,3.138,12.783a18.52556,18.52556,0,0,0,1.76,3.394q1.56753,2.574,3.137,5.148a2.80578,2.80578,0,0,0,1.486,1.439c.933.245,1.824-.509,2.389-1.289a9.23145,9.23145,0,0,0,1.418-2.94,4.113,4.113,0,0,1,1.225-2.502,3.32338,3.32338,0,0,1,1.62-.416c2.03-.166,4.5-.122,5.551,1.623.528.876.575,2.045,1.336,2.73a10.45685,10.45685,0,0,0-10.894-14.793c.951-1.061,2.624-.917,4.03-.688a124.039,124.039,0,0,1-1.336-14.917c-1.125,1.819-2.842,3.903-4.92,3.398a3.47464,3.47464,0,0,1-2.302-2.388,10.30277,10.30277,0,0,1-.311-3.431c.008-.361-4.349-.151-4.961.239-1.741,1.109-2.852,3.544-3.297,5.482" fill="none" stroke="#000" stroke-miterlimit="10"/><path d="M344.9043,494.8007a20.25932,20.25932,0,0,0,7.336,1.595,42.80958,42.80958,0,0,0-1.089-11.757c1.503,1.396,1.591,3.779,2.835,5.41a8.06038,8.06038,0,0,0,3.262,2.256,33.20227,33.20227,0,0,0,9.88,2.656,4.83009,4.83009,0,0,1,1.478.31,4.464,4.464,0,0,1,1.234.95c4.041,3.927,8.422,7.858,13.855,9.352a28.17135,28.17135,0,0,0,7.378.824,66.08241,66.08241,0,0,0,7.349-.378,33.32084,33.32084,0,0,0,.226-5.043,1.34543,1.34543,0,0,0-.282-.947,1.37217,1.37217,0,0,0-.646-.291c-4.231-1.066-8.893-2.095-12.8-.152a1.46133,1.46133,0,0,0,.879-1.541,3.91788,3.91788,0,0,0-.746-1.746,30.48577,30.48577,0,0,0-3.801-4.719,6.35826,6.35826,0,0,1-1.651-2.187,10.99122,10.99122,0,0,1-.319-2.165,8.131,8.131,0,0,0-4.382-5.67,24.04832,24.04832,0,0,0-7.085-2.141,1.9127,1.9127,0,0,0-1.196.028,1.83388,1.83388,0,0,0-.75.953,21.09057,21.09057,0,0,0-1.834,10.388q-2.262-3.8685-4.524-7.734a2.34468,2.34468,0,0,0-1.851-1.411q-5.421-1.461-10.843-2.921c-1.116-.301-2.535-.504-3.22.426a2.82578,2.82578,0,0,0-.396,1.588,46.11736,46.11736,0,0,0,1.736,14.546" fill="none" stroke="#000" stroke-miterlimit="10"/><path d="M199.1895,478.8928q.657,8.763,2.065,17.45c.577,3.558,9.273,3.641,12.317,4.255a.7858.7858,0,0,0,.501-.011c.449-.222.112-.901-.256-1.24a1.02866,1.02866,0,0,0,.607-1.489c.338-.011.679-.024,1.019-.037-.69-3.263-9.014-2.242-11.361-2.262q.84747-.1755,1.696-.35-.29852-6.6105-.598-13.222" fill="none" stroke="#000" stroke-miterlimit="10"/><path d="M208.6949,385.46831c.405,1.252-.438,2.533-1.235,3.579-.402.528-.958,1.139-1.564.868a8.52066,8.52066,0,0,1-5.745-.2c1.924,2.158,2.187,5.434,1.296,8.185a19.32632,19.32632,0,0,1-4.773,7.152,3.46739,3.46739,0,0,1-.171-3.101,17.50211,17.50211,0,0,0,1.029-3.054c.277-1.999-.8-4.309.426-5.912a9.67049,9.67049,0,0,0,.842-1.008c.728-1.286-.457-2.751-1.245-4.001a7.93514,7.93514,0,0,1,8.234-12.019c1.122.218,1.688.55,1.916,1.67a1.44129,1.44129,0,0,1,1.213,1.802" fill="none" stroke="#000" stroke-miterlimit="10"/><path d="M223.04829,372.53581c.632-5.213,1.871-9.592.673-14.911a12.96182,12.96182,0,0,1-.591-4.397c.192-1.522,1.052-2.947.97-4.479q-.885,1.28848-1.772,2.577a9.45577,9.45577,0,0,0,.608-3.587,22.04968,22.04968,0,0,0-2.212,4.074,18.12212,18.12212,0,0,0,.591-5.837,15.90481,15.90481,0,0,0-2.876,7.013,2.11037,2.11037,0,0,0-3.038.602,3.28973,3.28973,0,0,0,1.54,1.631q-2.52,7.21952-5.753,14.161c-2.149,4.614-4.543,9.161-5.851,14.08-1.906,7.166.352,12.884,1.833,19.783,1.445,6.729-.414,12.267-1.715,18.822,3.311.626,7.162,1.111,9.665-1.145,2.662-2.4,2.362-6.543,2.647-10.116a4.84231,4.84231,0,0,1,.423-1.85,6.37642,6.37642,0,0,1,1.119-1.381c1.971-2.079,3.464-5.039,2.576-7.761a38.41494,38.41494,0,0,0-1.91-3.634c-1.551-3.433-.213-7.398.899-10.997,1.334-4.326,1.645-8.264,2.174-12.648m-5.547,3.94c-.32,2.382-.193,4.81-.545,7.187a10.67742,10.67742,0,0,1-1.948,4.992c.013.086-.016.19-.111.202l-.06-.01a6.46164,6.46164,0,0,1-1.104,1.056l.953-1.125a.80563.80563,0,0,1-.181-.249c-2.112-4.235-.886-9.356.965-13.711,1.852-4.355,4.33-8.6,4.686-13.32.694,5.055-1.979,9.921-2.655,14.978" fill="none" stroke="#000" stroke-miterlimit="10"/><path d="M218.72591,415.2238a39.67294,39.67294,0,0,0-16.344-2.175q1.2075-9.0915,1.789-18.253a7.35106,7.35106,0,0,0,8.786-9.675c1.711.067,2.917,1.641,3.867,3.064q1.61848,2.42248,3.236,4.844a23.3719,23.3719,0,0,1,2.914,5.307,7.87622,7.87622,0,0,1-.108,5.917c-.697,1.432-1.946,2.519-2.781,3.874-1.31,2.124-1.513,4.725-1.68,7.213" fill="none" stroke="#000" stroke-miterlimit="10"/><path d="M208.6427,383.1579a2.70544,2.70544,0,0,0,.28-2.881,4.07717,4.07717,0,0,0-2.277-1.941,4.28,4.28,0,0,0-5.135,1.513,6.72067,6.72067,0,0,0-.615,3.254c-.005.319.017.694.283.869.178.117.419.105.597.223.348.229.251.75.213,1.166a2.614,2.614,0,0,0,2.7,2.715,5.70032,5.70032,0,0,1,.963-.088c1.384.125,2.177,2.285,3.518,1.919" fill="none" stroke="#000" stroke-miterlimit="10"/><path d="M208.6889,490.3276a1.08878,1.08878,0,0,0,.058.548,1.11132,1.11132,0,0,0,.775.474c1.469.398,4.056.565,5.306,1.308.325.194,2.344,1.405.528,1.551.379-.032.433.625.105.816a1.33658,1.33658,0,0,1-1.101-.072,33.30531,33.30531,0,0,0-7.528-1.589,19.28119,19.28119,0,0,1-.782-6.899c.047-.799.662-7.379,1.479-7.464q1.365-.144,2.729-.288c.354,3.811-1.312,7.768-1.569,11.615" fill="none" stroke="#000" stroke-miterlimit="10"/><path d="M218.4424,435.525a100.96376,100.96376,0,0,0-2.113-15.993q-5.0865.5505-10.174,1.102a1.71524,1.71524,0,0,0-.67.167,1.767,1.767,0,0,0-.62.834c-2.728,5.713-8.343,8.953-7.454,16.027a22.01077,22.01077,0,0,0,.99,3.912,15.516,15.516,0,0,1,.566,5.36c-.164,13.227-1.886,26.683.196,39.827a.57676.57676,0,0,0,.84.563q2.679-.504,5.357-1.009c.159-.029.758-9.616.91-10.45.692-3.793,1.139-7.779,1.735-11.646,1.253-8.127,2.624-16.309,2.263-24.563a11.63914,11.63914,0,0,1,.216-3.825,3.49921,3.49921,0,0,1,2.578-2.581,11.20585,11.20585,0,0,0-1.752,6.038l-.096-.249q-.426,11.697-1.722,23.34c-.84,7.543-2.506,14.927-3.181,22.455a13.94053,13.94053,0,0,0,3.507,1.13c.947-4.383,1.275-8.875,2.115-13.201q.792-4.0815,1.587-8.164c.961-4.946,3.067-10.755,3.067-15.782.863-4.44,2.086-8.782,1.855-13.292" fill="none" stroke="#000" stroke-miterlimit="10"/><path d="M162.98331,506.3083a13.9423,13.9423,0,0,0-5.049.961,3.12918,3.12918,0,0,0-1.795,1.361c-.567,1.164.367,2.601,1.569,3.08a8.10325,8.10325,0,0,0,3.839.155q1.92-.201,3.855-.212a4.121,4.121,0,0,0,1.797-.266,3.02474,3.02474,0,0,0,1.281-1.435,2.772,2.772,0,0,0,.313-.987c.099-1.21-1.044-2.159-2.168-2.616a8.24183,8.24183,0,0,0-4.709-.44" fill="none" stroke="#000" stroke-miterlimit="10"/><path d="M152.0042,498.4567a5.83147,5.83147,0,0,0-1.01-.392,4.79983,4.79983,0,0,0-1.375-.097,4.21426,4.21426,0,0,0-3.462,1.528c-.728,1.009-1.511,1.849-1.511,3.161a4.9425,4.9425,0,1,0,9.885,0,4.58342,4.58342,0,0,0-2.527-4.2" fill="none" stroke="#000" stroke-miterlimit="10"/><rect x="161.94499" y="509.498" width="0.298" height="0.297" fill="none" stroke="#000" stroke-miterlimit="10"/><path d="M162.7038,509.9515a.8386.8386,0,0,0,.25.253.656.656,0,0,0,.68,0,.79338.79338,0,0,0,.253-.25,1.20788,1.20788,0,0,0,.156-.369,1.81609,1.81609,0,0,0,.003-.891,1.18882,1.18882,0,0,0-.159-.367.84015.84015,0,0,0-.253-.251.662.662,0,0,0-.68,0,.833.833,0,0,0-.252.253,1.27939,1.27939,0,0,0-.158.367,1.94987,1.94987,0,0,0,0,.886,1.25256,1.25256,0,0,0,.16.369m-.005-1.193a1.07378,1.07378,0,0,1,.122-.318l.201-.213a.49653.49653,0,0,1,.275-.078.50565.50565,0,0,1,.277.078.70758.70758,0,0,1,.201.216,1.106,1.106,0,0,1,.121.315,1.53271,1.53271,0,0,1,.042.382,1.49274,1.49274,0,0,1-.042.377,1.0751,1.0751,0,0,1-.118.316.6843.6843,0,0,1-.202.218.49142.49142,0,0,1-.279.081.5072.5072,0,0,1-.278-.079.67109.67109,0,0,1-.201-.218,1.1821,1.1821,0,0,1-.122-.316,1.82845,1.82845,0,0,1-.039-.379,1.53225,1.53225,0,0,1,.042-.382" fill="none" stroke="#000" stroke-miterlimit="10"/><path d="M175.6662,497.682a6.02582,6.02582,0,0,0-2.71.707,5.085,5.085,0,0,0-1.081,7.696c2.599,2.881,7.654.837,8.749-2.586a4.10739,4.10739,0,0,0,.163-.778,5.55138,5.55138,0,0,0,.023-.865,4.47658,4.47658,0,0,0-1.397-3.243,5.2423,5.2423,0,0,0-3.747-.931" fill="none" stroke="#000" stroke-miterlimit="10"/><path d="M165.35271,509.9427l-.179.139a.62187.62187,0,0,1-.26.051l-.168-.022-.15-.072-.108-.124-.065-.179h-.181a.63939.63939,0,0,0,.076.24l.147.178.204.106.247.036a.79248.79248,0,0,0,.323-.059.648.648,0,0,0,.232-.165.73117.73117,0,0,0,.14-.249,1.03515,1.03515,0,0,0,.045-.307.75712.75712,0,0,0-.053-.276l-.139-.221-.21-.151a.66183.66183,0,0,0-.265-.055l-.129.008-.135.02-.124.045-.106.075.074-.772h.977v-.164h-1.149c-.016.196-.034.384-.047.568-.014.186-.032.374-.044.573h.166l.219-.144.252-.045.234.04.17.114.109.173.036.222-.033.223Z" fill="none" stroke="#000" stroke-miterlimit="10"/><path d="M160.2979,509.9515a.80871.80871,0,0,0,.251.253.65419.65419,0,0,0,.679,0,.78069.78069,0,0,0,.252-.25,1.2898,1.2898,0,0,0,.159-.369,1.83208,1.83208,0,0,0,0-.891,1.18908,1.18908,0,0,0-.159-.367.826.826,0,0,0-.252-.251.66015.66015,0,0,0-.679,0,.79812.79812,0,0,0-.251.253,1.2,1.2,0,0,0-.157.367,1.81125,1.81125,0,0,0,0,.886,1.22306,1.22306,0,0,0,.157.369m-.008-1.193a1.23237,1.23237,0,0,1,.124-.318l.201-.213a.49511.49511,0,0,1,.276-.078.5032.5032,0,0,1,.277.078.71017.71017,0,0,1,.202.216,1.13632,1.13632,0,0,1,.121.315,1.74671,1.74671,0,0,1,.041.382,1.83057,1.83057,0,0,1-.039.377,1.136,1.136,0,0,1-.121.316.67864.67864,0,0,1-.204.218.47816.47816,0,0,1-.277.081.5.5,0,0,1-.278-.079.671.671,0,0,1-.201-.218,1.1184,1.1184,0,0,1-.122-.316,1.64179,1.64179,0,0,1-.042-.379,1.68717,1.68717,0,0,1,.042-.382" fill="none" stroke="#000" stroke-miterlimit="10"/><rect x="161.94499" y="508.585" width="0.298" height="0.298" fill="none" stroke="#000" stroke-miterlimit="10"/><path d="M186.453,509.6403q.234-8.799.468-17.598a8.15072,8.15072,0,0,1-2.735,1.964,14.51351,14.51351,0,0,1,3.007-2.943c-.784-.417-3.086-.385-3.492-.99-.44-.65.52-3.65.646-4.451a.87026.87026,0,0,0-.127-.775.84928.84928,0,0,0-.464-.179,60.63772,60.63772,0,0,0-15.276-.623,4.40747,4.40747,0,0,1-.283-1.59c-2.202-.268-4.413-.467-6.628-.575-1.731-.085-2.435-.036-2.609,1.8-4.181.468-8.704-.016-12.922-.04a.67113.67113,0,0,0-.798.765c-.147,1.209.343,3.152-.462,4.186-.731.936-3.311,1.722-4.382,2.541-1.494,1.146-.314,8.435-.168,10.137q.25048,2.91752.501,5.836c.094,1.096-.146,5.022.658,5.668.558.447,3.054.385,3.859.425.971.045,1.954.005,2.926.005h13.843q7.464,0,14.925,0c2.835-.001,8.053,1.272,9.417-2.4a1.83956,1.83956,0,0,0,.081-.591l.015-.572m-36.094-24.359q3.04951.111,6.101.223,6.28951.2265,12.579.456,1.0335.039,2.069.076,5.559.201,11.116.404-.16652,2.1525-.332,4.307a32.18445,32.18445,0,0,0-5.406-.585q-14.457-.723-28.935-.826a.54659.54659,0,0,1-.711-.594,11.86637,11.86637,0,0,1-.147-2.945c.296-1.172,2.534-.557,3.476-.523Zm-.862,24.265a6.9155,6.9155,0,0,1,0-13.831,6.64346,6.64346,0,0,1,5.519,2.966c3.111,4.489-.063,10.865-5.519,10.865m8.943-11.189c.017.134,2.274-.127,2.482-.007.608.352.409.962.228,1.652a10.73,10.73,0,0,1-2.011.259.98632.98632,0,0,1-.837-.253l-.073-.127c-.18-.438.282-1.009.211-1.524m-.185,3.455a10.91506,10.91506,0,0,0,3.276.293c.237-.016-.23,1.555-.476,1.723-.498.341-1.278.092-1.85.041a1.03339,1.03339,0,0,1-.524-.145l-.18-.218c-.217-.475.152-1.274-.246-1.694m8.704,8.761h-8.341v-2.973h8.341Zm-1.135-10.467c-.154.147-.775.092-.968.108-.356.027-1.878.247-2.085-.281l-.025-.137a10.00831,10.00831,0,0,1,.132-1.486q1.527.123,3.055.248a3.4503,3.4503,0,0,1-.109,1.548m.215,2.103c.001.465.003.928.004,1.392,0,.317-2.353.487-2.7.212-.544-.427-.271-1.086-.198-1.724l.116.005q1.389.057,2.778.115m1.685-6.308s-.109-.002-.306-.006c-1.662-.031-9.519-.18-10.27-.2q-.06-.786-.119-1.573,5.11952.3135,10.25.225a.46824.46824,0,0,1,.398.119.4607.4607,0,0,1,.063.293c-.005.381-.011.761-.016,1.142m11.871,11.354a4.77987,4.77987,0,0,1-3.746,1.276q-.20551-.01048-.411-.03c-.203-.019-.405-.043-.606-.069a8.49937,8.49937,0,0,1-2.376-.583c-3.281-1.471-3.685-5.815-2.118-8.681a6.21755,6.21755,0,0,1,6.141-3.078,6.403,6.403,0,0,1,5.173,4.559,6.59989,6.59989,0,0,1-2.057,6.606" fill="none" stroke="#000" stroke-miterlimit="10"/><path d="M144.6321,517.7786a53.75184,53.75184,0,0,1-3.109-16.11q1.512,6.012,3.027,12.023a127.17,127.17,0,0,1,4.178-17.366q1.029,8.90249,1.414,17.862,2.66249-6.82351,5.323-13.649-.228,8.358-.459,16.717" fill="none" stroke="#000" stroke-miterlimit="10"/><path d="M365.56879,428.2533a2.4123,2.4123,0,0,1-.245.83,56.75462,56.75462,0,0,1-5.822,10.271c-.481-.872.668-2.418,1.044-3.169a40.93161,40.93161,0,0,1,3.33-5.242q.72753-1.026,1.456-2.055" fill="none" stroke="#000" stroke-miterlimit="10"/></g></svg>